<mxfile host="Electron" modified="2024-01-31T09:33:39.655Z" agent="Mozilla/5.0 (X11; Linux x86_64) AppleWebKit/537.36 (KHTML, like Gecko) draw.io/22.1.18 Chrome/120.0.6099.199 Electron/28.1.2 Safari/537.36" etag="Q2SIHhIs3OxJZAoRcD4Y" version="22.1.18" type="device">
  <diagram name="Page-1" id="Zax9B30aSTlTAaykP7Ov">
    <mxGraphModel dx="1364" dy="843" grid="1" gridSize="10" guides="1" tooltips="1" connect="1" arrows="1" fold="1" page="1" pageScale="1" pageWidth="827" pageHeight="1169" math="0" shadow="0">
      <root>
        <mxCell id="0" />
        <mxCell id="1" parent="0" />
        <mxCell id="nTJ7f8Eex9G9C2aoOh-K-1" value="&lt;b&gt;Instruction interface&lt;/b&gt;" style="rounded=1;whiteSpace=wrap;html=1;flipV=1;rotation=-90;" parent="1" vertex="1">
          <mxGeometry x="-66" y="235" width="200" height="50" as="geometry" />
        </mxCell>
        <mxCell id="nTJ7f8Eex9G9C2aoOh-K-2" value="&lt;b&gt;Data&amp;nbsp;interface&lt;/b&gt;" style="rounded=1;whiteSpace=wrap;html=1;flipV=1;rotation=-90;" parent="1" vertex="1">
          <mxGeometry x="682" y="235" width="200" height="50" as="geometry" />
        </mxCell>
        <mxCell id="nTJ7f8Eex9G9C2aoOh-K-31" value="" style="edgeStyle=orthogonalEdgeStyle;rounded=0;orthogonalLoop=1;jettySize=auto;html=1;" parent="1" edge="1">
          <mxGeometry relative="1" as="geometry">
            <mxPoint x="153" y="269" as="sourcePoint" />
            <mxPoint x="248" y="224" as="targetPoint" />
            <Array as="points">
              <mxPoint x="194" y="269" />
              <mxPoint x="194" y="224" />
            </Array>
          </mxGeometry>
        </mxCell>
        <mxCell id="nTJ7f8Eex9G9C2aoOh-K-5" value="&lt;b&gt;Decoder&lt;br&gt;&lt;/b&gt;" style="rounded=1;whiteSpace=wrap;html=1;flipV=1;rotation=0;" parent="1" vertex="1">
          <mxGeometry x="224" y="160" width="126" height="80" as="geometry" />
        </mxCell>
        <mxCell id="nTJ7f8Eex9G9C2aoOh-K-10" value="PC&amp;nbsp; RF&amp;nbsp; EX&amp;nbsp; WB&amp;nbsp; IM" style="shape=trapezoid;perimeter=trapezoidPerimeter;whiteSpace=wrap;html=1;fixedSize=1;rotation=90;" parent="1" vertex="1">
          <mxGeometry x="337.44" y="172.19" width="144.38" height="21.25" as="geometry" />
        </mxCell>
        <mxCell id="nTJ7f8Eex9G9C2aoOh-K-14" value="&lt;b&gt;CSR&lt;br&gt;&lt;/b&gt;" style="rounded=1;whiteSpace=wrap;html=1;flipV=1;rotation=0;arcSize=14;" parent="1" vertex="1">
          <mxGeometry x="504" y="159" width="96" height="50" as="geometry" />
        </mxCell>
        <mxCell id="nTJ7f8Eex9G9C2aoOh-K-15" value="&lt;b&gt;ALU&lt;br&gt;&lt;/b&gt;" style="rounded=1;whiteSpace=wrap;html=1;flipV=1;rotation=0;arcSize=14;" parent="1" vertex="1">
          <mxGeometry x="500" y="221" width="100" height="70" as="geometry" />
        </mxCell>
        <mxCell id="nTJ7f8Eex9G9C2aoOh-K-16" value="&lt;b&gt;MUL&lt;br&gt;DIV&lt;br&gt;&lt;/b&gt;" style="rounded=1;whiteSpace=wrap;html=1;flipV=1;rotation=0;arcSize=14;" parent="1" vertex="1">
          <mxGeometry x="500" y="303" width="100" height="70" as="geometry" />
        </mxCell>
        <mxCell id="nTJ7f8Eex9G9C2aoOh-K-18" value="&lt;b&gt;&lt;font style=&quot;font-size: 14px;&quot; color=&quot;#f74f11&quot;&gt;+ ISA ext.&lt;/font&gt;&lt;br&gt;&lt;/b&gt;" style="rounded=1;whiteSpace=wrap;html=1;flipV=1;rotation=0;arcSize=14;strokeColor=#82b366;fillColor=#d5e8d4;dashed=1;dashPattern=1 1;strokeWidth=2;" parent="1" vertex="1">
          <mxGeometry x="243" y="215" width="90" height="20" as="geometry" />
        </mxCell>
        <mxCell id="nTJ7f8Eex9G9C2aoOh-K-19" value="&lt;b&gt;&lt;font style=&quot;font-size: 18px;&quot;&gt;CV32xxx&lt;/font&gt;&lt;/b&gt;" style="text;html=1;strokeColor=none;fillColor=none;align=center;verticalAlign=middle;whiteSpace=wrap;rounded=0;" parent="1" vertex="1">
          <mxGeometry x="50" y="30" width="60" height="30" as="geometry" />
        </mxCell>
        <mxCell id="nTJ7f8Eex9G9C2aoOh-K-20" value="&lt;b&gt;&lt;font style=&quot;font-size: 14px;&quot; color=&quot;#f74f11&quot;&gt;+ extension&lt;/font&gt;&lt;br&gt;&lt;/b&gt;" style="rounded=1;whiteSpace=wrap;html=1;flipV=1;rotation=0;arcSize=14;strokeColor=#82b366;fillColor=#d5e8d4;dashed=1;dashPattern=1 1;strokeWidth=2;" parent="1" vertex="1">
          <mxGeometry x="164" y="35" width="90" height="20" as="geometry" />
        </mxCell>
        <mxCell id="nTJ7f8Eex9G9C2aoOh-K-21" value="RF&amp;nbsp; &amp;nbsp; EX&amp;nbsp; WB&amp;nbsp; IM" style="shape=trapezoid;perimeter=trapezoidPerimeter;whiteSpace=wrap;html=1;fixedSize=1;rotation=90;" parent="1" vertex="1">
          <mxGeometry x="339" y="325" width="140" height="20" as="geometry" />
        </mxCell>
        <mxCell id="nTJ7f8Eex9G9C2aoOh-K-22" value="" style="endArrow=classic;html=1;rounded=0;entryX=0;entryY=0.711;entryDx=0;entryDy=0;entryPerimeter=0;" parent="1" target="nTJ7f8Eex9G9C2aoOh-K-4" edge="1">
          <mxGeometry width="50" height="50" relative="1" as="geometry">
            <mxPoint x="60" y="201" as="sourcePoint" />
            <mxPoint x="440" y="250" as="targetPoint" />
          </mxGeometry>
        </mxCell>
        <mxCell id="nTJ7f8Eex9G9C2aoOh-K-24" value="" style="endArrow=classic;html=1;rounded=0;entryX=0;entryY=0.711;entryDx=0;entryDy=0;entryPerimeter=0;" parent="1" edge="1">
          <mxGeometry width="50" height="50" relative="1" as="geometry">
            <mxPoint x="90" y="311" as="sourcePoint" />
            <mxPoint x="59" y="311" as="targetPoint" />
          </mxGeometry>
        </mxCell>
        <mxCell id="nTJ7f8Eex9G9C2aoOh-K-27" value="" style="endArrow=classic;html=1;rounded=0;exitX=1;exitY=0.25;exitDx=0;exitDy=0;entryX=0.715;entryY=0.98;entryDx=0;entryDy=0;entryPerimeter=0;edgeStyle=orthogonalEdgeStyle;" parent="1" source="nTJ7f8Eex9G9C2aoOh-K-13" target="nTJ7f8Eex9G9C2aoOh-K-2" edge="1">
          <mxGeometry width="50" height="50" relative="1" as="geometry">
            <mxPoint x="414" y="260" as="sourcePoint" />
            <mxPoint x="464" y="210" as="targetPoint" />
            <Array as="points">
              <mxPoint x="734" y="78" />
              <mxPoint x="734" y="217" />
            </Array>
          </mxGeometry>
        </mxCell>
        <mxCell id="nTJ7f8Eex9G9C2aoOh-K-29" value="" style="endArrow=classic;html=1;rounded=0;entryX=1;entryY=0.75;entryDx=0;entryDy=0;edgeStyle=orthogonalEdgeStyle;exitX=0.5;exitY=0;exitDx=0;exitDy=0;" parent="1" source="nTJ7f8Eex9G9C2aoOh-K-2" target="nTJ7f8Eex9G9C2aoOh-K-13" edge="1">
          <mxGeometry width="50" height="50" relative="1" as="geometry">
            <mxPoint x="744" y="260" as="sourcePoint" />
            <mxPoint x="464" y="210" as="targetPoint" />
          </mxGeometry>
        </mxCell>
        <mxCell id="nTJ7f8Eex9G9C2aoOh-K-35" value="" style="triangle;whiteSpace=wrap;html=1;rotation=-90;" parent="1" vertex="1">
          <mxGeometry x="543" y="363" width="10" height="10" as="geometry" />
        </mxCell>
        <mxCell id="nTJ7f8Eex9G9C2aoOh-K-36" value="" style="triangle;whiteSpace=wrap;html=1;rotation=-90;" parent="1" vertex="1">
          <mxGeometry x="543" y="281" width="10" height="10" as="geometry" />
        </mxCell>
        <mxCell id="nTJ7f8Eex9G9C2aoOh-K-37" value="" style="triangle;whiteSpace=wrap;html=1;rotation=-90;" parent="1" vertex="1">
          <mxGeometry x="546" y="199" width="10" height="10" as="geometry" />
        </mxCell>
        <mxCell id="nTJ7f8Eex9G9C2aoOh-K-42" value="" style="group" parent="1" vertex="1" connectable="0">
          <mxGeometry x="645" y="200" width="30" height="160" as="geometry" />
        </mxCell>
        <mxCell id="nTJ7f8Eex9G9C2aoOh-K-11" value="EX&lt;br&gt;&lt;br&gt;WB" style="rounded=0;whiteSpace=wrap;html=1;fontStyle=1" parent="nTJ7f8Eex9G9C2aoOh-K-42" vertex="1">
          <mxGeometry x="4" width="30" height="160" as="geometry" />
        </mxCell>
        <mxCell id="nTJ7f8Eex9G9C2aoOh-K-39" value="" style="triangle;whiteSpace=wrap;html=1;rotation=-90;" parent="nTJ7f8Eex9G9C2aoOh-K-42" vertex="1">
          <mxGeometry x="14" y="150" width="10" height="10" as="geometry" />
        </mxCell>
        <mxCell id="nTJ7f8Eex9G9C2aoOh-K-49" value="" style="endArrow=classicThin;html=1;rounded=0;exitX=1.033;exitY=0.038;exitDx=0;exitDy=0;exitPerimeter=0;endFill=1;" parent="1" source="nTJ7f8Eex9G9C2aoOh-K-8" edge="1">
          <mxGeometry width="50" height="50" relative="1" as="geometry">
            <mxPoint x="204.99" y="143.94000000000005" as="sourcePoint" />
            <mxPoint x="400" y="141" as="targetPoint" />
          </mxGeometry>
        </mxCell>
        <mxCell id="nTJ7f8Eex9G9C2aoOh-K-51" value="" style="endArrow=none;html=1;rounded=0;exitX=0;exitY=0.25;exitDx=0;exitDy=0;startArrow=classicThin;startFill=1;" parent="1" source="nTJ7f8Eex9G9C2aoOh-K-43" edge="1">
          <mxGeometry width="50" height="50" relative="1" as="geometry">
            <mxPoint x="414" y="260" as="sourcePoint" />
            <mxPoint x="244" y="240" as="targetPoint" />
            <Array as="points">
              <mxPoint x="234" y="270" />
            </Array>
          </mxGeometry>
        </mxCell>
        <mxCell id="nTJ7f8Eex9G9C2aoOh-K-52" value="" style="endArrow=none;html=1;rounded=0;exitX=0;exitY=0.5;exitDx=0;exitDy=0;endFill=0;startArrow=classicThin;startFill=1;" parent="1" source="nTJ7f8Eex9G9C2aoOh-K-44" edge="1">
          <mxGeometry width="50" height="50" relative="1" as="geometry">
            <mxPoint x="184" y="317" as="sourcePoint" />
            <mxPoint x="234" y="270" as="targetPoint" />
          </mxGeometry>
        </mxCell>
        <mxCell id="nTJ7f8Eex9G9C2aoOh-K-53" value="" style="endArrow=classicThin;html=1;rounded=0;exitX=1;exitY=0.5;exitDx=0;exitDy=0;entryX=0.321;entryY=0.953;entryDx=0;entryDy=0;entryPerimeter=0;endFill=1;" parent="1" source="nTJ7f8Eex9G9C2aoOh-K-47" target="nTJ7f8Eex9G9C2aoOh-K-10" edge="1">
          <mxGeometry width="50" height="50" relative="1" as="geometry">
            <mxPoint x="414" y="260" as="sourcePoint" />
            <mxPoint x="464" y="210" as="targetPoint" />
            <Array as="points">
              <mxPoint x="384" y="279" />
              <mxPoint x="384" y="157" />
            </Array>
          </mxGeometry>
        </mxCell>
        <mxCell id="nTJ7f8Eex9G9C2aoOh-K-54" value="" style="endArrow=classicThin;html=1;rounded=0;exitX=1;exitY=0.5;exitDx=0;exitDy=0;entryX=0.827;entryY=0.906;entryDx=0;entryDy=0;entryPerimeter=0;endFill=1;" parent="1" source="nTJ7f8Eex9G9C2aoOh-K-5" target="nTJ7f8Eex9G9C2aoOh-K-10" edge="1">
          <mxGeometry width="50" height="50" relative="1" as="geometry">
            <mxPoint x="414" y="260" as="sourcePoint" />
            <mxPoint x="464" y="210" as="targetPoint" />
            <Array as="points">
              <mxPoint x="374" y="200" />
              <mxPoint x="374" y="230" />
            </Array>
          </mxGeometry>
        </mxCell>
        <mxCell id="nTJ7f8Eex9G9C2aoOh-K-55" value="" style="endArrow=classicThin;html=1;rounded=0;entryX=0.75;entryY=1;entryDx=0;entryDy=0;endFill=1;startArrow=oval;startFill=1;" parent="1" target="nTJ7f8Eex9G9C2aoOh-K-21" edge="1">
          <mxGeometry width="50" height="50" relative="1" as="geometry">
            <mxPoint x="374" y="230" as="sourcePoint" />
            <mxPoint x="464" y="210" as="targetPoint" />
            <Array as="points">
              <mxPoint x="374" y="370" />
            </Array>
          </mxGeometry>
        </mxCell>
        <mxCell id="nTJ7f8Eex9G9C2aoOh-K-56" value="" style="endArrow=classic;html=1;rounded=0;exitX=1;exitY=0.5;exitDx=0;exitDy=0;entryX=0.179;entryY=1;entryDx=0;entryDy=0;entryPerimeter=0;" parent="1" source="nTJ7f8Eex9G9C2aoOh-K-46" target="nTJ7f8Eex9G9C2aoOh-K-21" edge="1">
          <mxGeometry width="50" height="50" relative="1" as="geometry">
            <mxPoint x="414" y="260" as="sourcePoint" />
            <mxPoint x="464" y="210" as="targetPoint" />
            <Array as="points">
              <mxPoint x="354" y="303" />
              <mxPoint x="354" y="290" />
            </Array>
          </mxGeometry>
        </mxCell>
        <mxCell id="nTJ7f8Eex9G9C2aoOh-K-58" value="" style="endArrow=none;html=1;rounded=0;entryX=0.033;entryY=0.287;entryDx=0;entryDy=0;entryPerimeter=0;" parent="1" target="nTJ7f8Eex9G9C2aoOh-K-9" edge="1">
          <mxGeometry width="50" height="50" relative="1" as="geometry">
            <mxPoint x="420" y="183" as="sourcePoint" />
            <mxPoint x="464" y="210" as="targetPoint" />
          </mxGeometry>
        </mxCell>
        <mxCell id="nTJ7f8Eex9G9C2aoOh-K-59" value="" style="endArrow=none;html=1;rounded=0;exitX=0.5;exitY=0;exitDx=0;exitDy=0;entryX=-0.133;entryY=0.282;entryDx=0;entryDy=0;entryPerimeter=0;" parent="1" edge="1">
          <mxGeometry width="50" height="50" relative="1" as="geometry">
            <mxPoint x="421" y="335" as="sourcePoint" />
            <mxPoint x="454" y="335" as="targetPoint" />
          </mxGeometry>
        </mxCell>
        <mxCell id="nTJ7f8Eex9G9C2aoOh-K-64" value="" style="shape=trapezoid;perimeter=trapezoidPerimeter;whiteSpace=wrap;html=1;fixedSize=1;rotation=90;" parent="1" vertex="1">
          <mxGeometry x="566" y="260" width="120" height="15" as="geometry" />
        </mxCell>
        <mxCell id="nTJ7f8Eex9G9C2aoOh-K-65" value="" style="shape=trapezoid;perimeter=trapezoidPerimeter;whiteSpace=wrap;html=1;fixedSize=1;rotation=-180;" parent="1" vertex="1">
          <mxGeometry x="686" y="330" width="60" height="15" as="geometry" />
        </mxCell>
        <mxCell id="nTJ7f8Eex9G9C2aoOh-K-68" value="" style="group" parent="1" vertex="1" connectable="0">
          <mxGeometry x="437" y="94" width="30" height="310" as="geometry" />
        </mxCell>
        <mxCell id="nTJ7f8Eex9G9C2aoOh-K-9" value="ID&lt;br&gt;EX" style="rounded=0;whiteSpace=wrap;html=1;" parent="nTJ7f8Eex9G9C2aoOh-K-68" vertex="1">
          <mxGeometry x="-5" width="30" height="310" as="geometry" />
        </mxCell>
        <mxCell id="nTJ7f8Eex9G9C2aoOh-K-34" value="" style="triangle;whiteSpace=wrap;html=1;rotation=-90;" parent="nTJ7f8Eex9G9C2aoOh-K-68" vertex="1">
          <mxGeometry x="5" y="300" width="10" height="10" as="geometry" />
        </mxCell>
        <mxCell id="nTJ7f8Eex9G9C2aoOh-K-69" value="" style="group" parent="1" vertex="1" connectable="0">
          <mxGeometry x="254" y="260" width="85" height="130" as="geometry" />
        </mxCell>
        <mxCell id="nTJ7f8Eex9G9C2aoOh-K-6" value="&lt;b&gt;Register file&lt;br&gt;&lt;/b&gt;" style="rounded=1;whiteSpace=wrap;html=1;flipV=1;rotation=0;" parent="nTJ7f8Eex9G9C2aoOh-K-69" vertex="1">
          <mxGeometry width="85" height="130" as="geometry" />
        </mxCell>
        <mxCell id="nTJ7f8Eex9G9C2aoOh-K-33" value="" style="triangle;whiteSpace=wrap;html=1;rotation=-90;" parent="nTJ7f8Eex9G9C2aoOh-K-69" vertex="1">
          <mxGeometry x="38.2967032967033" y="120" width="9.340659340659341" height="10" as="geometry" />
        </mxCell>
        <mxCell id="nTJ7f8Eex9G9C2aoOh-K-43" value="rA" style="text;html=1;strokeColor=none;fillColor=none;align=center;verticalAlign=middle;whiteSpace=wrap;rounded=0;" parent="nTJ7f8Eex9G9C2aoOh-K-69" vertex="1">
          <mxGeometry y="14" width="23.35164835164835" height="26" as="geometry" />
        </mxCell>
        <mxCell id="nTJ7f8Eex9G9C2aoOh-K-44" value="rB" style="text;html=1;strokeColor=none;fillColor=none;align=center;verticalAlign=middle;whiteSpace=wrap;rounded=0;" parent="nTJ7f8Eex9G9C2aoOh-K-69" vertex="1">
          <mxGeometry y="30" width="23.35164835164835" height="26" as="geometry" />
        </mxCell>
        <mxCell id="nTJ7f8Eex9G9C2aoOh-K-45" value="DIA" style="text;html=1;strokeColor=none;fillColor=none;align=center;verticalAlign=middle;whiteSpace=wrap;rounded=0;" parent="nTJ7f8Eex9G9C2aoOh-K-69" vertex="1">
          <mxGeometry x="2.802197802197802" y="79" width="23.35164835164835" height="26" as="geometry" />
        </mxCell>
        <mxCell id="nTJ7f8Eex9G9C2aoOh-K-46" value="DB" style="text;html=1;strokeColor=none;fillColor=none;align=center;verticalAlign=middle;whiteSpace=wrap;rounded=0;" parent="nTJ7f8Eex9G9C2aoOh-K-69" vertex="1">
          <mxGeometry x="60.19120879120879" y="30" width="23.35164835164835" height="26" as="geometry" />
        </mxCell>
        <mxCell id="nTJ7f8Eex9G9C2aoOh-K-47" value="DA" style="text;html=1;strokeColor=none;fillColor=none;align=center;verticalAlign=middle;whiteSpace=wrap;rounded=0;" parent="nTJ7f8Eex9G9C2aoOh-K-69" vertex="1">
          <mxGeometry x="60.19120879120879" y="7" width="23.35164835164835" height="23" as="geometry" />
        </mxCell>
        <mxCell id="nTJ7f8Eex9G9C2aoOh-K-70" value="" style="group" parent="1" vertex="1" connectable="0">
          <mxGeometry x="174" y="131" width="30" height="260" as="geometry" />
        </mxCell>
        <mxCell id="nTJ7f8Eex9G9C2aoOh-K-8" value="IF&lt;br&gt;DF" style="rounded=0;whiteSpace=wrap;html=1;" parent="nTJ7f8Eex9G9C2aoOh-K-70" vertex="1">
          <mxGeometry width="30" height="260" as="geometry" />
        </mxCell>
        <mxCell id="nTJ7f8Eex9G9C2aoOh-K-32" value="" style="triangle;whiteSpace=wrap;html=1;rotation=-90;" parent="nTJ7f8Eex9G9C2aoOh-K-70" vertex="1">
          <mxGeometry x="10" y="250" width="10" height="10" as="geometry" />
        </mxCell>
        <mxCell id="nTJ7f8Eex9G9C2aoOh-K-71" value="" style="group" parent="1" vertex="1" connectable="0">
          <mxGeometry x="524" y="60" width="180" height="71" as="geometry" />
        </mxCell>
        <mxCell id="nTJ7f8Eex9G9C2aoOh-K-13" value="LSU" style="rounded=1;whiteSpace=wrap;html=1;" parent="nTJ7f8Eex9G9C2aoOh-K-71" vertex="1">
          <mxGeometry width="180" height="70" as="geometry" />
        </mxCell>
        <mxCell id="nTJ7f8Eex9G9C2aoOh-K-38" value="" style="triangle;whiteSpace=wrap;html=1;rotation=-90;" parent="nTJ7f8Eex9G9C2aoOh-K-71" vertex="1">
          <mxGeometry x="48" y="60" width="10" height="10" as="geometry" />
        </mxCell>
        <mxCell id="nTJ7f8Eex9G9C2aoOh-K-60" value="OpA" style="text;html=1;strokeColor=none;fillColor=none;align=center;verticalAlign=middle;whiteSpace=wrap;rounded=0;" parent="nTJ7f8Eex9G9C2aoOh-K-71" vertex="1">
          <mxGeometry x="3" y="7" width="25" height="26" as="geometry" />
        </mxCell>
        <mxCell id="nTJ7f8Eex9G9C2aoOh-K-61" value="OpB" style="text;html=1;strokeColor=none;fillColor=none;align=center;verticalAlign=middle;whiteSpace=wrap;rounded=0;" parent="nTJ7f8Eex9G9C2aoOh-K-71" vertex="1">
          <mxGeometry x="4" y="23" width="25" height="26" as="geometry" />
        </mxCell>
        <mxCell id="nTJ7f8Eex9G9C2aoOh-K-62" value="OpC" style="text;html=1;strokeColor=none;fillColor=none;align=center;verticalAlign=middle;whiteSpace=wrap;rounded=0;" parent="nTJ7f8Eex9G9C2aoOh-K-71" vertex="1">
          <mxGeometry x="4" y="40" width="25" height="26" as="geometry" />
        </mxCell>
        <mxCell id="nTJ7f8Eex9G9C2aoOh-K-63" value="RD" style="text;html=1;strokeColor=none;fillColor=none;align=center;verticalAlign=middle;whiteSpace=wrap;rounded=0;" parent="nTJ7f8Eex9G9C2aoOh-K-71" vertex="1">
          <mxGeometry x="140" y="45" width="25" height="26" as="geometry" />
        </mxCell>
        <mxCell id="nTJ7f8Eex9G9C2aoOh-K-75" value="" style="endArrow=classic;html=1;rounded=0;exitX=0.5;exitY=0;exitDx=0;exitDy=0;entryX=0;entryY=0.5;entryDx=0;entryDy=0;" parent="1" source="nTJ7f8Eex9G9C2aoOh-K-65" target="nTJ7f8Eex9G9C2aoOh-K-45" edge="1">
          <mxGeometry width="50" height="50" relative="1" as="geometry">
            <mxPoint x="414" y="260" as="sourcePoint" />
            <mxPoint x="464" y="210" as="targetPoint" />
            <Array as="points">
              <mxPoint x="714" y="440" />
              <mxPoint x="224" y="440" />
              <mxPoint x="224" y="352" />
            </Array>
          </mxGeometry>
        </mxCell>
        <mxCell id="nTJ7f8Eex9G9C2aoOh-K-79" value="OpA" style="text;html=1;strokeColor=none;fillColor=none;align=center;verticalAlign=middle;whiteSpace=wrap;rounded=0;" parent="1" vertex="1">
          <mxGeometry x="504" y="161.82" width="25" height="26" as="geometry" />
        </mxCell>
        <mxCell id="nTJ7f8Eex9G9C2aoOh-K-80" value="OpB" style="text;html=1;strokeColor=none;fillColor=none;align=center;verticalAlign=middle;whiteSpace=wrap;rounded=0;" parent="1" vertex="1">
          <mxGeometry x="505" y="177.82" width="25" height="26" as="geometry" />
        </mxCell>
        <mxCell id="nTJ7f8Eex9G9C2aoOh-K-81" value="OpA" style="text;html=1;strokeColor=none;fillColor=none;align=center;verticalAlign=middle;whiteSpace=wrap;rounded=0;" parent="1" vertex="1">
          <mxGeometry x="503.5" y="228" width="25" height="26" as="geometry" />
        </mxCell>
        <mxCell id="nTJ7f8Eex9G9C2aoOh-K-82" value="OpB" style="text;html=1;strokeColor=none;fillColor=none;align=center;verticalAlign=middle;whiteSpace=wrap;rounded=0;" parent="1" vertex="1">
          <mxGeometry x="504.5" y="244" width="25" height="26" as="geometry" />
        </mxCell>
        <mxCell id="nTJ7f8Eex9G9C2aoOh-K-83" value="OpA" style="text;html=1;strokeColor=none;fillColor=none;align=center;verticalAlign=middle;whiteSpace=wrap;rounded=0;" parent="1" vertex="1">
          <mxGeometry x="504.5" y="303" width="25" height="26" as="geometry" />
        </mxCell>
        <mxCell id="nTJ7f8Eex9G9C2aoOh-K-84" value="OpB" style="text;html=1;strokeColor=none;fillColor=none;align=center;verticalAlign=middle;whiteSpace=wrap;rounded=0;" parent="1" vertex="1">
          <mxGeometry x="505.5" y="319" width="25" height="26" as="geometry" />
        </mxCell>
        <mxCell id="nTJ7f8Eex9G9C2aoOh-K-88" value="RD" style="text;html=1;strokeColor=none;fillColor=none;align=center;verticalAlign=middle;whiteSpace=wrap;rounded=0;" parent="1" vertex="1">
          <mxGeometry x="575" y="173" width="25" height="26" as="geometry" />
        </mxCell>
        <mxCell id="nTJ7f8Eex9G9C2aoOh-K-89" value="RD" style="text;html=1;strokeColor=none;fillColor=none;align=center;verticalAlign=middle;whiteSpace=wrap;rounded=0;" parent="1" vertex="1">
          <mxGeometry x="575" y="240" width="25" height="26" as="geometry" />
        </mxCell>
        <mxCell id="nTJ7f8Eex9G9C2aoOh-K-90" value="RD" style="text;html=1;strokeColor=none;fillColor=none;align=center;verticalAlign=middle;whiteSpace=wrap;rounded=0;" parent="1" vertex="1">
          <mxGeometry x="575" y="322" width="25" height="26" as="geometry" />
        </mxCell>
        <mxCell id="nTJ7f8Eex9G9C2aoOh-K-92" value="" style="group" parent="1" vertex="1" connectable="0">
          <mxGeometry x="503" y="380" width="114" height="42" as="geometry" />
        </mxCell>
        <mxCell id="nTJ7f8Eex9G9C2aoOh-K-17" value="&lt;b&gt;&lt;font style=&quot;font-size: 14px;&quot; color=&quot;#f74f11&quot;&gt;+ ISA ext.&lt;/font&gt;&lt;br&gt;&lt;/b&gt;" style="rounded=1;whiteSpace=wrap;html=1;flipV=1;rotation=0;arcSize=14;strokeColor=#82b366;fillColor=#d5e8d4;dashed=1;dashPattern=1 1;strokeWidth=2;" parent="nTJ7f8Eex9G9C2aoOh-K-92" vertex="1">
          <mxGeometry width="114" height="35" as="geometry" />
        </mxCell>
        <mxCell id="nTJ7f8Eex9G9C2aoOh-K-40" value="" style="triangle;whiteSpace=wrap;html=1;rotation=-90;fillColor=#d5e8d4;strokeColor=#82b366;" parent="nTJ7f8Eex9G9C2aoOh-K-92" vertex="1">
          <mxGeometry x="48" y="25" width="10" height="10" as="geometry" />
        </mxCell>
        <mxCell id="nTJ7f8Eex9G9C2aoOh-K-85" value="OpA" style="text;html=1;strokeColor=none;fillColor=none;align=center;verticalAlign=middle;whiteSpace=wrap;rounded=0;" parent="nTJ7f8Eex9G9C2aoOh-K-92" vertex="1">
          <mxGeometry width="25" height="26" as="geometry" />
        </mxCell>
        <mxCell id="nTJ7f8Eex9G9C2aoOh-K-86" value="OpB" style="text;html=1;strokeColor=none;fillColor=none;align=center;verticalAlign=middle;whiteSpace=wrap;rounded=0;" parent="nTJ7f8Eex9G9C2aoOh-K-92" vertex="1">
          <mxGeometry x="1" y="11" width="25" height="26" as="geometry" />
        </mxCell>
        <mxCell id="nTJ7f8Eex9G9C2aoOh-K-91" value="RD" style="text;html=1;strokeColor=none;fillColor=none;align=center;verticalAlign=middle;whiteSpace=wrap;rounded=0;" parent="nTJ7f8Eex9G9C2aoOh-K-92" vertex="1">
          <mxGeometry x="89" y="4.5" width="25" height="26" as="geometry" />
        </mxCell>
        <mxCell id="nTJ7f8Eex9G9C2aoOh-K-94" value="" style="endArrow=classicThin;html=1;rounded=0;entryX=0;entryY=0.5;entryDx=0;entryDy=0;endFill=1;" parent="1" edge="1">
          <mxGeometry width="50" height="50" relative="1" as="geometry">
            <mxPoint x="464" y="259" as="sourcePoint" />
            <mxPoint x="500" y="259" as="targetPoint" />
          </mxGeometry>
        </mxCell>
        <mxCell id="nTJ7f8Eex9G9C2aoOh-K-95" value="" style="endArrow=classicThin;html=1;rounded=0;entryX=0;entryY=0.5;entryDx=0;entryDy=0;endFill=1;exitX=0.967;exitY=0.469;exitDx=0;exitDy=0;exitPerimeter=0;" parent="1" source="nTJ7f8Eex9G9C2aoOh-K-9" edge="1">
          <mxGeometry width="50" height="50" relative="1" as="geometry">
            <mxPoint x="466" y="240" as="sourcePoint" />
            <mxPoint x="499" y="240" as="targetPoint" />
          </mxGeometry>
        </mxCell>
        <mxCell id="nTJ7f8Eex9G9C2aoOh-K-96" value="" style="endArrow=classic;html=1;rounded=0;startArrow=oval;startFill=1;" parent="1" edge="1">
          <mxGeometry width="50" height="50" relative="1" as="geometry">
            <mxPoint x="474" y="240" as="sourcePoint" />
            <mxPoint x="524" y="80" as="targetPoint" />
            <Array as="points">
              <mxPoint x="474" y="80" />
            </Array>
          </mxGeometry>
        </mxCell>
        <mxCell id="nTJ7f8Eex9G9C2aoOh-K-97" value="" style="endArrow=classic;html=1;rounded=0;entryX=0;entryY=0.75;entryDx=0;entryDy=0;startArrow=oval;startFill=1;" parent="1" edge="1">
          <mxGeometry width="50" height="50" relative="1" as="geometry">
            <mxPoint x="474" y="176" as="sourcePoint" />
            <mxPoint x="504" y="176.31999999999994" as="targetPoint" />
          </mxGeometry>
        </mxCell>
        <mxCell id="nTJ7f8Eex9G9C2aoOh-K-98" value="" style="endArrow=classic;html=1;rounded=0;entryX=0;entryY=0.75;entryDx=0;entryDy=0;startArrow=oval;startFill=1;" parent="1" edge="1">
          <mxGeometry width="50" height="50" relative="1" as="geometry">
            <mxPoint x="474" y="316" as="sourcePoint" />
            <mxPoint x="504" y="316.31999999999994" as="targetPoint" />
          </mxGeometry>
        </mxCell>
        <mxCell id="nTJ7f8Eex9G9C2aoOh-K-99" value="" style="endArrow=classic;html=1;rounded=0;entryX=0;entryY=0.75;entryDx=0;entryDy=0;startArrow=oval;startFill=1;" parent="1" edge="1">
          <mxGeometry width="50" height="50" relative="1" as="geometry">
            <mxPoint x="483" y="332" as="sourcePoint" />
            <mxPoint x="501" y="332.31999999999994" as="targetPoint" />
          </mxGeometry>
        </mxCell>
        <mxCell id="nTJ7f8Eex9G9C2aoOh-K-102" value="" style="endArrow=classic;html=1;rounded=0;entryX=0;entryY=0.75;entryDx=0;entryDy=0;startArrow=none;startFill=0;fillColor=#d5e8d4;strokeColor=#82b366;" parent="1" edge="1">
          <mxGeometry width="50" height="50" relative="1" as="geometry">
            <mxPoint x="474" y="390" as="sourcePoint" />
            <mxPoint x="504" y="390.31999999999994" as="targetPoint" />
          </mxGeometry>
        </mxCell>
        <mxCell id="nTJ7f8Eex9G9C2aoOh-K-103" value="" style="endArrow=classic;html=1;rounded=0;entryX=0;entryY=0.75;entryDx=0;entryDy=0;startArrow=none;startFill=0;fillColor=#d5e8d4;strokeColor=#82b366;" parent="1" edge="1">
          <mxGeometry width="50" height="50" relative="1" as="geometry">
            <mxPoint x="482" y="404" as="sourcePoint" />
            <mxPoint x="502" y="404.31999999999994" as="targetPoint" />
          </mxGeometry>
        </mxCell>
        <mxCell id="nTJ7f8Eex9G9C2aoOh-K-105" value="" style="endArrow=none;html=1;rounded=0;" parent="1" edge="1">
          <mxGeometry width="50" height="50" relative="1" as="geometry">
            <mxPoint x="474" y="390" as="sourcePoint" />
            <mxPoint x="474" y="240" as="targetPoint" />
          </mxGeometry>
        </mxCell>
        <mxCell id="nTJ7f8Eex9G9C2aoOh-K-106" value="" style="endArrow=oval;html=1;rounded=0;startArrow=none;startFill=0;endFill=1;" parent="1" edge="1">
          <mxGeometry width="50" height="50" relative="1" as="geometry">
            <mxPoint x="481.82" y="404" as="sourcePoint" />
            <mxPoint x="482" y="260" as="targetPoint" />
          </mxGeometry>
        </mxCell>
        <mxCell id="nTJ7f8Eex9G9C2aoOh-K-109" value="" style="endArrow=classic;html=1;rounded=0;entryX=0.013;entryY=1.137;entryDx=0;entryDy=0;entryPerimeter=0;startArrow=oval;startFill=1;" parent="1" target="nTJ7f8Eex9G9C2aoOh-K-79" edge="1">
          <mxGeometry width="50" height="50" relative="1" as="geometry">
            <mxPoint x="484" y="191" as="sourcePoint" />
            <mxPoint x="594" y="200" as="targetPoint" />
          </mxGeometry>
        </mxCell>
        <mxCell id="nTJ7f8Eex9G9C2aoOh-K-110" value="" style="endArrow=classic;html=1;rounded=0;entryX=0;entryY=0.5;entryDx=0;entryDy=0;" parent="1" edge="1">
          <mxGeometry width="50" height="50" relative="1" as="geometry">
            <mxPoint x="482" y="260" as="sourcePoint" />
            <mxPoint x="522" y="95" as="targetPoint" />
            <Array as="points">
              <mxPoint x="482" y="95" />
            </Array>
          </mxGeometry>
        </mxCell>
        <mxCell id="nTJ7f8Eex9G9C2aoOh-K-111" value="" style="endArrow=classic;html=1;rounded=0;entryX=0;entryY=0.75;entryDx=0;entryDy=0;exitX=1.03;exitY=0.4;exitDx=0;exitDy=0;exitPerimeter=0;" parent="1" source="nTJ7f8Eex9G9C2aoOh-K-9" target="nTJ7f8Eex9G9C2aoOh-K-13" edge="1">
          <mxGeometry width="50" height="50" relative="1" as="geometry">
            <mxPoint x="544" y="250" as="sourcePoint" />
            <mxPoint x="594" y="200" as="targetPoint" />
            <Array as="points">
              <mxPoint x="464" y="210" />
              <mxPoint x="464" y="113" />
            </Array>
          </mxGeometry>
        </mxCell>
        <mxCell id="nTJ7f8Eex9G9C2aoOh-K-112" value="" style="endArrow=classic;html=1;rounded=0;exitX=1;exitY=0;exitDx=0;exitDy=0;entryX=0.116;entryY=0.96;entryDx=0;entryDy=0;entryPerimeter=0;" parent="1" source="nTJ7f8Eex9G9C2aoOh-K-88" target="nTJ7f8Eex9G9C2aoOh-K-64" edge="1">
          <mxGeometry width="50" height="50" relative="1" as="geometry">
            <mxPoint x="544" y="250" as="sourcePoint" />
            <mxPoint x="594" y="200" as="targetPoint" />
            <Array as="points">
              <mxPoint x="604" y="180" />
              <mxPoint x="604" y="220" />
            </Array>
          </mxGeometry>
        </mxCell>
        <mxCell id="nTJ7f8Eex9G9C2aoOh-K-113" value="" style="endArrow=classic;html=1;rounded=0;exitX=1;exitY=0.5;exitDx=0;exitDy=0;entryX=0.378;entryY=1.119;entryDx=0;entryDy=0;entryPerimeter=0;" parent="1" source="nTJ7f8Eex9G9C2aoOh-K-89" target="nTJ7f8Eex9G9C2aoOh-K-64" edge="1">
          <mxGeometry width="50" height="50" relative="1" as="geometry">
            <mxPoint x="544" y="250" as="sourcePoint" />
            <mxPoint x="594" y="200" as="targetPoint" />
          </mxGeometry>
        </mxCell>
        <mxCell id="nTJ7f8Eex9G9C2aoOh-K-115" value="" style="endArrow=classic;html=1;rounded=0;entryX=0.604;entryY=0.929;entryDx=0;entryDy=0;entryPerimeter=0;exitX=1;exitY=0.5;exitDx=0;exitDy=0;" parent="1" source="nTJ7f8Eex9G9C2aoOh-K-90" target="nTJ7f8Eex9G9C2aoOh-K-64" edge="1">
          <mxGeometry width="50" height="50" relative="1" as="geometry">
            <mxPoint x="604" y="330" as="sourcePoint" />
            <mxPoint x="594" y="200" as="targetPoint" />
            <Array as="points">
              <mxPoint x="604" y="320" />
              <mxPoint x="604" y="280" />
            </Array>
          </mxGeometry>
        </mxCell>
        <mxCell id="nTJ7f8Eex9G9C2aoOh-K-116" value="" style="endArrow=classic;html=1;rounded=0;exitX=1;exitY=0.5;exitDx=0;exitDy=0;entryX=0.842;entryY=1.151;entryDx=0;entryDy=0;entryPerimeter=0;fillColor=#d5e8d4;strokeColor=#82b366;" parent="1" source="nTJ7f8Eex9G9C2aoOh-K-17" target="nTJ7f8Eex9G9C2aoOh-K-64" edge="1">
          <mxGeometry width="50" height="50" relative="1" as="geometry">
            <mxPoint x="544" y="250" as="sourcePoint" />
            <mxPoint x="594" y="200" as="targetPoint" />
            <Array as="points">
              <mxPoint x="624" y="390" />
              <mxPoint x="604" y="330" />
            </Array>
          </mxGeometry>
        </mxCell>
        <mxCell id="nTJ7f8Eex9G9C2aoOh-K-117" value="" style="endArrow=none;html=1;rounded=0;exitX=0.5;exitY=0;exitDx=0;exitDy=0;entryX=0.003;entryY=0.425;entryDx=0;entryDy=0;entryPerimeter=0;" parent="1" source="nTJ7f8Eex9G9C2aoOh-K-64" target="nTJ7f8Eex9G9C2aoOh-K-11" edge="1">
          <mxGeometry width="50" height="50" relative="1" as="geometry">
            <mxPoint x="544" y="250" as="sourcePoint" />
            <mxPoint x="594" y="200" as="targetPoint" />
          </mxGeometry>
        </mxCell>
        <mxCell id="nTJ7f8Eex9G9C2aoOh-K-118" value="" style="endArrow=none;html=1;rounded=0;entryX=0.679;entryY=1.003;entryDx=0;entryDy=0;exitX=1.003;exitY=0.419;exitDx=0;exitDy=0;exitPerimeter=0;entryPerimeter=0;" parent="1" source="nTJ7f8Eex9G9C2aoOh-K-11" target="nTJ7f8Eex9G9C2aoOh-K-65" edge="1">
          <mxGeometry width="50" height="50" relative="1" as="geometry">
            <mxPoint x="684.0899999999999" y="269.9200000000001" as="sourcePoint" />
            <mxPoint x="706" y="330" as="targetPoint" />
            <Array as="points">
              <mxPoint x="704" y="267" />
            </Array>
          </mxGeometry>
        </mxCell>
        <mxCell id="nTJ7f8Eex9G9C2aoOh-K-120" value="" style="endArrow=none;html=1;rounded=0;exitX=0.417;exitY=0.94;exitDx=0;exitDy=0;exitPerimeter=0;" parent="1" source="nTJ7f8Eex9G9C2aoOh-K-65" edge="1">
          <mxGeometry width="50" height="50" relative="1" as="geometry">
            <mxPoint x="625" y="181" as="sourcePoint" />
            <mxPoint x="675" y="131" as="targetPoint" />
            <Array as="points">
              <mxPoint x="721" y="160" />
              <mxPoint x="684" y="160" />
              <mxPoint x="675" y="140" />
            </Array>
          </mxGeometry>
        </mxCell>
        <mxCell id="nTJ7f8Eex9G9C2aoOh-K-4" value="&lt;b&gt;Fetcher&lt;br&gt;&lt;/b&gt;" style="rounded=1;whiteSpace=wrap;html=1;flipV=1;rotation=0;" parent="1" vertex="1">
          <mxGeometry x="83" y="120" width="70" height="280" as="geometry" />
        </mxCell>
        <mxCell id="nTJ7f8Eex9G9C2aoOh-K-121" value="" style="endArrow=oval;html=1;rounded=0;startArrow=none;startFill=0;endFill=1;" parent="1" edge="1">
          <mxGeometry width="50" height="50" relative="1" as="geometry">
            <mxPoint x="640" y="429" as="sourcePoint" />
            <mxPoint x="640" y="269" as="targetPoint" />
          </mxGeometry>
        </mxCell>
        <mxCell id="nTJ7f8Eex9G9C2aoOh-K-122" value="" style="endArrow=none;html=1;rounded=0;" parent="1" edge="1">
          <mxGeometry width="50" height="50" relative="1" as="geometry">
            <mxPoint x="360" y="429" as="sourcePoint" />
            <mxPoint x="640" y="429" as="targetPoint" />
          </mxGeometry>
        </mxCell>
        <mxCell id="nTJ7f8Eex9G9C2aoOh-K-125" value="" style="endArrow=none;dashed=1;html=1;dashPattern=1 3;strokeWidth=2;rounded=0;startArrow=oval;startFill=1;" parent="1" edge="1">
          <mxGeometry width="50" height="50" relative="1" as="geometry">
            <mxPoint x="360" y="431" as="sourcePoint" />
            <mxPoint x="360" y="181" as="targetPoint" />
          </mxGeometry>
        </mxCell>
        <mxCell id="nTJ7f8Eex9G9C2aoOh-K-126" value="" style="endArrow=classicThin;dashed=1;html=1;dashPattern=1 3;strokeWidth=2;rounded=0;entryX=0.5;entryY=1;entryDx=0;entryDy=0;endFill=1;" parent="1" edge="1">
          <mxGeometry width="50" height="50" relative="1" as="geometry">
            <mxPoint x="360" y="182" as="sourcePoint" />
            <mxPoint x="399.0050000000001" y="181.81500000000005" as="targetPoint" />
          </mxGeometry>
        </mxCell>
        <mxCell id="nTJ7f8Eex9G9C2aoOh-K-127" value="" style="endArrow=classicThin;dashed=1;html=1;dashPattern=1 3;strokeWidth=2;rounded=0;entryX=0.465;entryY=0.986;entryDx=0;entryDy=0;entryPerimeter=0;startArrow=oval;startFill=1;endFill=1;" parent="1" target="nTJ7f8Eex9G9C2aoOh-K-21" edge="1">
          <mxGeometry width="50" height="50" relative="1" as="geometry">
            <mxPoint x="360" y="330" as="sourcePoint" />
            <mxPoint x="510" y="250" as="targetPoint" />
          </mxGeometry>
        </mxCell>
        <mxCell id="nTJ7f8Eex9G9C2aoOh-K-128" value="" style="endArrow=none;dashed=1;html=1;rounded=0;startArrow=oval;startFill=1;" parent="1" edge="1">
          <mxGeometry width="50" height="50" relative="1" as="geometry">
            <mxPoint x="368" y="440" as="sourcePoint" />
            <mxPoint x="368" y="210" as="targetPoint" />
          </mxGeometry>
        </mxCell>
        <mxCell id="nTJ7f8Eex9G9C2aoOh-K-129" value="" style="endArrow=classicThin;dashed=1;html=1;rounded=0;entryX=0.689;entryY=1.02;entryDx=0;entryDy=0;entryPerimeter=0;endFill=1;" parent="1" target="nTJ7f8Eex9G9C2aoOh-K-10" edge="1">
          <mxGeometry width="50" height="50" relative="1" as="geometry">
            <mxPoint x="370" y="210" as="sourcePoint" />
            <mxPoint x="510" y="250" as="targetPoint" />
          </mxGeometry>
        </mxCell>
        <mxCell id="nTJ7f8Eex9G9C2aoOh-K-130" value="" style="endArrow=classicThin;dashed=1;html=1;rounded=0;startArrow=oval;startFill=1;entryX=0.607;entryY=0.95;entryDx=0;entryDy=0;entryPerimeter=0;endFill=1;" parent="1" target="nTJ7f8Eex9G9C2aoOh-K-21" edge="1">
          <mxGeometry width="50" height="50" relative="1" as="geometry">
            <mxPoint x="369" y="350" as="sourcePoint" />
            <mxPoint x="396" y="351" as="targetPoint" />
          </mxGeometry>
        </mxCell>
        <mxCell id="18pgJk4WOHWRwlphfpk1-1" value="&lt;b&gt;Instruction interface&lt;/b&gt;" style="rounded=1;whiteSpace=wrap;html=1;flipV=1;rotation=-90;" parent="1" vertex="1">
          <mxGeometry x="-108.5" y="737.5" width="283" height="50" as="geometry" />
        </mxCell>
        <mxCell id="18pgJk4WOHWRwlphfpk1-2" value="&lt;b&gt;Data&amp;nbsp;interface&lt;/b&gt;" style="rounded=1;whiteSpace=wrap;html=1;flipV=1;rotation=-90;" parent="1" vertex="1">
          <mxGeometry x="681" y="734" width="200" height="50" as="geometry" />
        </mxCell>
        <mxCell id="18pgJk4WOHWRwlphfpk1-3" value="" style="edgeStyle=orthogonalEdgeStyle;rounded=0;orthogonalLoop=1;jettySize=auto;html=1;" parent="1" edge="1">
          <mxGeometry relative="1" as="geometry">
            <mxPoint x="152" y="768" as="sourcePoint" />
            <mxPoint x="247" y="723" as="targetPoint" />
            <Array as="points">
              <mxPoint x="193" y="768" />
              <mxPoint x="193" y="723" />
            </Array>
          </mxGeometry>
        </mxCell>
        <mxCell id="18pgJk4WOHWRwlphfpk1-4" value="&lt;b&gt;Decoder&lt;br&gt;&lt;/b&gt;" style="rounded=1;whiteSpace=wrap;html=1;flipV=1;rotation=0;" parent="1" vertex="1">
          <mxGeometry x="223" y="659" width="126" height="80" as="geometry" />
        </mxCell>
        <mxCell id="18pgJk4WOHWRwlphfpk1-5" value="PC&amp;nbsp; &amp;nbsp;RF&amp;nbsp; EX&amp;nbsp; WB&amp;nbsp;&amp;nbsp;IM" style="shape=trapezoid;perimeter=trapezoidPerimeter;whiteSpace=wrap;html=1;fixedSize=1;rotation=90;" parent="1" vertex="1">
          <mxGeometry x="323.22" y="657.97" width="170.82" height="21.25" as="geometry" />
        </mxCell>
        <mxCell id="18pgJk4WOHWRwlphfpk1-6" value="&lt;b&gt;CSR&lt;br&gt;&lt;/b&gt;" style="rounded=1;whiteSpace=wrap;html=1;flipV=1;rotation=0;arcSize=14;" parent="1" vertex="1">
          <mxGeometry x="503" y="658" width="96" height="50" as="geometry" />
        </mxCell>
        <mxCell id="18pgJk4WOHWRwlphfpk1-7" value="&lt;b&gt;ALU&lt;br&gt;&lt;/b&gt;" style="rounded=1;whiteSpace=wrap;html=1;flipV=1;rotation=0;arcSize=14;" parent="1" vertex="1">
          <mxGeometry x="499" y="720" width="100" height="70" as="geometry" />
        </mxCell>
        <mxCell id="18pgJk4WOHWRwlphfpk1-8" value="&lt;b&gt;MUL&lt;br&gt;DIV&lt;br&gt;&lt;/b&gt;" style="rounded=1;whiteSpace=wrap;html=1;flipV=1;rotation=0;arcSize=14;" parent="1" vertex="1">
          <mxGeometry x="499" y="802" width="100" height="70" as="geometry" />
        </mxCell>
        <mxCell id="18pgJk4WOHWRwlphfpk1-9" value="&lt;b&gt;&lt;font style=&quot;font-size: 14px;&quot; color=&quot;#f74f11&quot;&gt;+ ISA ext.&lt;/font&gt;&lt;br&gt;&lt;/b&gt;" style="rounded=1;whiteSpace=wrap;html=1;flipV=1;rotation=0;arcSize=14;strokeColor=#82b366;fillColor=#d5e8d4;dashed=1;dashPattern=1 1;strokeWidth=2;" parent="1" vertex="1">
          <mxGeometry x="242" y="714" width="90" height="20" as="geometry" />
        </mxCell>
        <mxCell id="18pgJk4WOHWRwlphfpk1-10" value="&lt;b&gt;&lt;font style=&quot;font-size: 18px;&quot;&gt;CV32E40P&lt;/font&gt;&lt;/b&gt;" style="text;html=1;strokeColor=none;fillColor=none;align=center;verticalAlign=middle;whiteSpace=wrap;rounded=0;" parent="1" vertex="1">
          <mxGeometry x="30" y="529" width="60" height="30" as="geometry" />
        </mxCell>
        <mxCell id="18pgJk4WOHWRwlphfpk1-11" value="&lt;b&gt;&lt;font style=&quot;font-size: 14px;&quot; color=&quot;#f74f11&quot;&gt;+ extension&lt;/font&gt;&lt;br&gt;&lt;/b&gt;" style="rounded=1;whiteSpace=wrap;html=1;flipV=1;rotation=0;arcSize=14;strokeColor=#82b366;fillColor=#d5e8d4;dashed=1;dashPattern=1 1;strokeWidth=2;" parent="1" vertex="1">
          <mxGeometry x="163" y="534" width="90" height="20" as="geometry" />
        </mxCell>
        <mxCell id="18pgJk4WOHWRwlphfpk1-12" value="RF&amp;nbsp; RF&amp;nbsp; EX&amp;nbsp; WB&amp;nbsp; IM" style="shape=trapezoid;perimeter=trapezoidPerimeter;whiteSpace=wrap;html=1;fixedSize=1;rotation=90;" parent="1" vertex="1">
          <mxGeometry x="330.75" y="829.75" width="154.5" height="20" as="geometry" />
        </mxCell>
        <mxCell id="18pgJk4WOHWRwlphfpk1-13" value="" style="endArrow=classic;html=1;rounded=0;entryX=0;entryY=0.711;entryDx=0;entryDy=0;entryPerimeter=0;" parent="1" target="18pgJk4WOHWRwlphfpk1-91" edge="1">
          <mxGeometry width="50" height="50" relative="1" as="geometry">
            <mxPoint x="59" y="700" as="sourcePoint" />
            <mxPoint x="439" y="749" as="targetPoint" />
          </mxGeometry>
        </mxCell>
        <mxCell id="18pgJk4WOHWRwlphfpk1-14" value="" style="endArrow=classic;html=1;rounded=0;entryX=0;entryY=0.711;entryDx=0;entryDy=0;entryPerimeter=0;" parent="1" edge="1">
          <mxGeometry width="50" height="50" relative="1" as="geometry">
            <mxPoint x="89" y="810" as="sourcePoint" />
            <mxPoint x="58" y="810" as="targetPoint" />
          </mxGeometry>
        </mxCell>
        <mxCell id="18pgJk4WOHWRwlphfpk1-15" value="" style="endArrow=classic;html=1;rounded=0;exitX=1;exitY=0.25;exitDx=0;exitDy=0;entryX=0.715;entryY=0.98;entryDx=0;entryDy=0;entryPerimeter=0;edgeStyle=orthogonalEdgeStyle;" parent="1" source="18pgJk4WOHWRwlphfpk1-49" target="18pgJk4WOHWRwlphfpk1-2" edge="1">
          <mxGeometry width="50" height="50" relative="1" as="geometry">
            <mxPoint x="413" y="759" as="sourcePoint" />
            <mxPoint x="463" y="709" as="targetPoint" />
            <Array as="points">
              <mxPoint x="733" y="577" />
              <mxPoint x="733" y="716" />
            </Array>
          </mxGeometry>
        </mxCell>
        <mxCell id="18pgJk4WOHWRwlphfpk1-16" value="" style="endArrow=classic;html=1;rounded=0;entryX=1;entryY=0.75;entryDx=0;entryDy=0;edgeStyle=orthogonalEdgeStyle;exitX=0.5;exitY=0;exitDx=0;exitDy=0;" parent="1" source="18pgJk4WOHWRwlphfpk1-2" target="18pgJk4WOHWRwlphfpk1-49" edge="1">
          <mxGeometry width="50" height="50" relative="1" as="geometry">
            <mxPoint x="743" y="759" as="sourcePoint" />
            <mxPoint x="463" y="709" as="targetPoint" />
          </mxGeometry>
        </mxCell>
        <mxCell id="18pgJk4WOHWRwlphfpk1-17" value="" style="triangle;whiteSpace=wrap;html=1;rotation=-90;" parent="1" vertex="1">
          <mxGeometry x="542" y="862" width="10" height="10" as="geometry" />
        </mxCell>
        <mxCell id="18pgJk4WOHWRwlphfpk1-18" value="" style="triangle;whiteSpace=wrap;html=1;rotation=-90;" parent="1" vertex="1">
          <mxGeometry x="542" y="780" width="10" height="10" as="geometry" />
        </mxCell>
        <mxCell id="18pgJk4WOHWRwlphfpk1-19" value="" style="triangle;whiteSpace=wrap;html=1;rotation=-90;" parent="1" vertex="1">
          <mxGeometry x="545" y="698" width="10" height="10" as="geometry" />
        </mxCell>
        <mxCell id="18pgJk4WOHWRwlphfpk1-20" value="" style="group" parent="1" vertex="1" connectable="0">
          <mxGeometry x="670" y="680" width="20" height="160" as="geometry" />
        </mxCell>
        <mxCell id="18pgJk4WOHWRwlphfpk1-21" value="&lt;font style=&quot;font-size: 10px;&quot;&gt;EX&lt;br&gt;&lt;br&gt;WB&lt;/font&gt;" style="rounded=0;whiteSpace=wrap;html=1;fontStyle=1" parent="18pgJk4WOHWRwlphfpk1-20" vertex="1">
          <mxGeometry x="2.6666666666666665" width="20" height="160" as="geometry" />
        </mxCell>
        <mxCell id="18pgJk4WOHWRwlphfpk1-22" value="" style="triangle;whiteSpace=wrap;html=1;rotation=-90;" parent="18pgJk4WOHWRwlphfpk1-20" vertex="1">
          <mxGeometry x="9.333333333333332" y="152" width="6.666666666666666" height="10" as="geometry" />
        </mxCell>
        <mxCell id="18pgJk4WOHWRwlphfpk1-23" value="" style="endArrow=classicThin;html=1;rounded=0;exitX=1.033;exitY=0.038;exitDx=0;exitDy=0;exitPerimeter=0;endFill=1;entryX=0.192;entryY=0.906;entryDx=0;entryDy=0;entryPerimeter=0;" parent="1" source="18pgJk4WOHWRwlphfpk1-46" target="18pgJk4WOHWRwlphfpk1-5" edge="1">
          <mxGeometry width="50" height="50" relative="1" as="geometry">
            <mxPoint x="203.99" y="642.94" as="sourcePoint" />
            <mxPoint x="399" y="640" as="targetPoint" />
          </mxGeometry>
        </mxCell>
        <mxCell id="18pgJk4WOHWRwlphfpk1-24" value="" style="endArrow=none;html=1;rounded=0;exitX=0;exitY=0.5;exitDx=0;exitDy=0;startArrow=classicThin;startFill=1;" parent="1" source="18pgJk4WOHWRwlphfpk1-40" edge="1">
          <mxGeometry width="50" height="50" relative="1" as="geometry">
            <mxPoint x="413" y="759" as="sourcePoint" />
            <mxPoint x="243" y="739" as="targetPoint" />
            <Array as="points">
              <mxPoint x="230" y="760" />
            </Array>
          </mxGeometry>
        </mxCell>
        <mxCell id="18pgJk4WOHWRwlphfpk1-25" value="" style="endArrow=none;html=1;rounded=0;exitX=0;exitY=0.5;exitDx=0;exitDy=0;endFill=0;startArrow=classicThin;startFill=1;" parent="1" source="18pgJk4WOHWRwlphfpk1-41" edge="1">
          <mxGeometry width="50" height="50" relative="1" as="geometry">
            <mxPoint x="183" y="816" as="sourcePoint" />
            <mxPoint x="230" y="760" as="targetPoint" />
          </mxGeometry>
        </mxCell>
        <mxCell id="18pgJk4WOHWRwlphfpk1-26" value="" style="endArrow=classicThin;html=1;rounded=0;exitX=1;exitY=0.5;exitDx=0;exitDy=0;entryX=0.397;entryY=0.906;entryDx=0;entryDy=0;entryPerimeter=0;endFill=1;" parent="1" source="18pgJk4WOHWRwlphfpk1-44" target="18pgJk4WOHWRwlphfpk1-5" edge="1">
          <mxGeometry width="50" height="50" relative="1" as="geometry">
            <mxPoint x="413" y="759" as="sourcePoint" />
            <mxPoint x="463" y="709" as="targetPoint" />
            <Array as="points">
              <mxPoint x="383" y="774" />
              <mxPoint x="383" y="656" />
            </Array>
          </mxGeometry>
        </mxCell>
        <mxCell id="18pgJk4WOHWRwlphfpk1-27" value="" style="endArrow=classicThin;html=1;rounded=0;exitX=1;exitY=0.5;exitDx=0;exitDy=0;entryX=0.827;entryY=0.906;entryDx=0;entryDy=0;entryPerimeter=0;endFill=1;" parent="1" source="18pgJk4WOHWRwlphfpk1-4" target="18pgJk4WOHWRwlphfpk1-5" edge="1">
          <mxGeometry width="50" height="50" relative="1" as="geometry">
            <mxPoint x="413" y="759" as="sourcePoint" />
            <mxPoint x="463" y="709" as="targetPoint" />
            <Array as="points">
              <mxPoint x="373" y="699" />
              <mxPoint x="373" y="729" />
            </Array>
          </mxGeometry>
        </mxCell>
        <mxCell id="18pgJk4WOHWRwlphfpk1-28" value="" style="endArrow=classicThin;html=1;rounded=0;entryX=0.799;entryY=1.1;entryDx=0;entryDy=0;endFill=1;startArrow=oval;startFill=1;entryPerimeter=0;" parent="1" target="18pgJk4WOHWRwlphfpk1-12" edge="1">
          <mxGeometry width="50" height="50" relative="1" as="geometry">
            <mxPoint x="373" y="729" as="sourcePoint" />
            <mxPoint x="463" y="709" as="targetPoint" />
            <Array as="points">
              <mxPoint x="373" y="869" />
            </Array>
          </mxGeometry>
        </mxCell>
        <mxCell id="18pgJk4WOHWRwlphfpk1-29" value="" style="endArrow=classic;html=1;rounded=0;exitX=1;exitY=0.5;exitDx=0;exitDy=0;entryX=0.179;entryY=1;entryDx=0;entryDy=0;entryPerimeter=0;" parent="1" source="18pgJk4WOHWRwlphfpk1-43" target="18pgJk4WOHWRwlphfpk1-12" edge="1">
          <mxGeometry width="50" height="50" relative="1" as="geometry">
            <mxPoint x="413" y="759" as="sourcePoint" />
            <mxPoint x="463" y="709" as="targetPoint" />
            <Array as="points">
              <mxPoint x="353" y="800" />
              <mxPoint x="353" y="789" />
            </Array>
          </mxGeometry>
        </mxCell>
        <mxCell id="18pgJk4WOHWRwlphfpk1-30" value="" style="endArrow=none;html=1;rounded=0;entryX=0.033;entryY=0.287;entryDx=0;entryDy=0;entryPerimeter=0;" parent="1" target="18pgJk4WOHWRwlphfpk1-35" edge="1">
          <mxGeometry width="50" height="50" relative="1" as="geometry">
            <mxPoint x="419" y="682" as="sourcePoint" />
            <mxPoint x="463" y="709" as="targetPoint" />
          </mxGeometry>
        </mxCell>
        <mxCell id="18pgJk4WOHWRwlphfpk1-31" value="" style="endArrow=none;html=1;rounded=0;exitX=0.5;exitY=0;exitDx=0;exitDy=0;entryX=-0.133;entryY=0.282;entryDx=0;entryDy=0;entryPerimeter=0;" parent="1" edge="1">
          <mxGeometry width="50" height="50" relative="1" as="geometry">
            <mxPoint x="419" y="834" as="sourcePoint" />
            <mxPoint x="452" y="834" as="targetPoint" />
          </mxGeometry>
        </mxCell>
        <mxCell id="18pgJk4WOHWRwlphfpk1-32" value="" style="shape=trapezoid;perimeter=trapezoidPerimeter;whiteSpace=wrap;html=1;fixedSize=1;rotation=90;" parent="1" vertex="1">
          <mxGeometry x="566.95" y="763.32" width="142.5" height="13.88" as="geometry" />
        </mxCell>
        <mxCell id="18pgJk4WOHWRwlphfpk1-37" value="" style="group" parent="1" vertex="1" connectable="0">
          <mxGeometry x="253" y="749" width="85" height="170" as="geometry" />
        </mxCell>
        <mxCell id="18pgJk4WOHWRwlphfpk1-38" value="&lt;b&gt;Register file&lt;br&gt;&lt;/b&gt;" style="rounded=1;whiteSpace=wrap;html=1;flipV=1;rotation=0;" parent="18pgJk4WOHWRwlphfpk1-37" vertex="1">
          <mxGeometry width="85" height="160" as="geometry" />
        </mxCell>
        <mxCell id="18pgJk4WOHWRwlphfpk1-39" value="" style="triangle;whiteSpace=wrap;html=1;rotation=-90;" parent="18pgJk4WOHWRwlphfpk1-37" vertex="1">
          <mxGeometry x="38.2967032967033" y="148.92307692307693" width="9.340659340659341" height="13.076923076923077" as="geometry" />
        </mxCell>
        <mxCell id="18pgJk4WOHWRwlphfpk1-40" value="rA" style="text;html=1;strokeColor=none;fillColor=none;align=center;verticalAlign=middle;whiteSpace=wrap;rounded=0;" parent="18pgJk4WOHWRwlphfpk1-37" vertex="1">
          <mxGeometry y="3.30769230769231" width="23.35164835164835" height="34" as="geometry" />
        </mxCell>
        <mxCell id="18pgJk4WOHWRwlphfpk1-41" value="rB" style="text;html=1;strokeColor=none;fillColor=none;align=center;verticalAlign=middle;whiteSpace=wrap;rounded=0;" parent="18pgJk4WOHWRwlphfpk1-37" vertex="1">
          <mxGeometry y="25.230769230769234" width="23.35164835164835" height="34" as="geometry" />
        </mxCell>
        <mxCell id="18pgJk4WOHWRwlphfpk1-42" value="DIA" style="text;html=1;strokeColor=none;fillColor=none;align=center;verticalAlign=middle;whiteSpace=wrap;rounded=0;" parent="18pgJk4WOHWRwlphfpk1-37" vertex="1">
          <mxGeometry x="2.802197802197802" y="103.30769230769229" width="23.35164835164835" height="34" as="geometry" />
        </mxCell>
        <mxCell id="18pgJk4WOHWRwlphfpk1-43" value="DB" style="text;html=1;strokeColor=none;fillColor=none;align=center;verticalAlign=middle;whiteSpace=wrap;rounded=0;" parent="18pgJk4WOHWRwlphfpk1-37" vertex="1">
          <mxGeometry x="60.19120879120879" y="32.23076923076923" width="23.35164835164835" height="34" as="geometry" />
        </mxCell>
        <mxCell id="18pgJk4WOHWRwlphfpk1-44" value="DA" style="text;html=1;strokeColor=none;fillColor=none;align=center;verticalAlign=middle;whiteSpace=wrap;rounded=0;" parent="18pgJk4WOHWRwlphfpk1-37" vertex="1">
          <mxGeometry x="60.19120879120879" y="9.153846153846155" width="23.35164835164835" height="30.076923076923077" as="geometry" />
        </mxCell>
        <mxCell id="18pgJk4WOHWRwlphfpk1-45" value="" style="group" parent="1" vertex="1" connectable="0">
          <mxGeometry x="173" y="600" width="30" height="360" as="geometry" />
        </mxCell>
        <mxCell id="18pgJk4WOHWRwlphfpk1-46" value="IF&lt;br&gt;DF" style="rounded=0;whiteSpace=wrap;html=1;" parent="18pgJk4WOHWRwlphfpk1-45" vertex="1">
          <mxGeometry width="30" height="360" as="geometry" />
        </mxCell>
        <mxCell id="18pgJk4WOHWRwlphfpk1-47" value="" style="triangle;whiteSpace=wrap;html=1;rotation=-90;" parent="18pgJk4WOHWRwlphfpk1-45" vertex="1">
          <mxGeometry x="10" y="348.1538461538462" width="10" height="13.846153846153847" as="geometry" />
        </mxCell>
        <mxCell id="18pgJk4WOHWRwlphfpk1-48" value="" style="group" parent="1" vertex="1" connectable="0">
          <mxGeometry x="523" y="559" width="180" height="71" as="geometry" />
        </mxCell>
        <mxCell id="18pgJk4WOHWRwlphfpk1-49" value="LSU" style="rounded=1;whiteSpace=wrap;html=1;" parent="18pgJk4WOHWRwlphfpk1-48" vertex="1">
          <mxGeometry width="180" height="70" as="geometry" />
        </mxCell>
        <mxCell id="18pgJk4WOHWRwlphfpk1-50" value="" style="triangle;whiteSpace=wrap;html=1;rotation=-90;" parent="18pgJk4WOHWRwlphfpk1-48" vertex="1">
          <mxGeometry x="48" y="60" width="10" height="10" as="geometry" />
        </mxCell>
        <mxCell id="18pgJk4WOHWRwlphfpk1-51" value="OpA" style="text;html=1;strokeColor=none;fillColor=none;align=center;verticalAlign=middle;whiteSpace=wrap;rounded=0;" parent="18pgJk4WOHWRwlphfpk1-48" vertex="1">
          <mxGeometry x="3" y="7" width="25" height="26" as="geometry" />
        </mxCell>
        <mxCell id="18pgJk4WOHWRwlphfpk1-52" value="OpB" style="text;html=1;strokeColor=none;fillColor=none;align=center;verticalAlign=middle;whiteSpace=wrap;rounded=0;" parent="18pgJk4WOHWRwlphfpk1-48" vertex="1">
          <mxGeometry x="4" y="23" width="25" height="26" as="geometry" />
        </mxCell>
        <mxCell id="18pgJk4WOHWRwlphfpk1-53" value="OpC" style="text;html=1;strokeColor=none;fillColor=none;align=center;verticalAlign=middle;whiteSpace=wrap;rounded=0;" parent="18pgJk4WOHWRwlphfpk1-48" vertex="1">
          <mxGeometry x="4" y="40" width="25" height="26" as="geometry" />
        </mxCell>
        <mxCell id="18pgJk4WOHWRwlphfpk1-54" value="RD" style="text;html=1;strokeColor=none;fillColor=none;align=center;verticalAlign=middle;whiteSpace=wrap;rounded=0;" parent="18pgJk4WOHWRwlphfpk1-48" vertex="1">
          <mxGeometry x="140" y="45" width="25" height="26" as="geometry" />
        </mxCell>
        <mxCell id="18pgJk4WOHWRwlphfpk1-55" value="" style="endArrow=classic;html=1;rounded=0;exitX=0.5;exitY=0;exitDx=0;exitDy=0;entryX=0;entryY=0.5;entryDx=0;entryDy=0;" parent="1" source="18pgJk4WOHWRwlphfpk1-33" target="18pgJk4WOHWRwlphfpk1-42" edge="1">
          <mxGeometry width="50" height="50" relative="1" as="geometry">
            <mxPoint x="413" y="759" as="sourcePoint" />
            <mxPoint x="463" y="709" as="targetPoint" />
            <Array as="points">
              <mxPoint x="223" y="939" />
              <mxPoint x="223" y="880" />
            </Array>
          </mxGeometry>
        </mxCell>
        <mxCell id="18pgJk4WOHWRwlphfpk1-56" value="OpA" style="text;html=1;strokeColor=none;fillColor=none;align=center;verticalAlign=middle;whiteSpace=wrap;rounded=0;" parent="1" vertex="1">
          <mxGeometry x="503" y="660.8199999999999" width="25" height="26" as="geometry" />
        </mxCell>
        <mxCell id="18pgJk4WOHWRwlphfpk1-57" value="OpB" style="text;html=1;strokeColor=none;fillColor=none;align=center;verticalAlign=middle;whiteSpace=wrap;rounded=0;" parent="1" vertex="1">
          <mxGeometry x="504" y="676.8199999999999" width="25" height="26" as="geometry" />
        </mxCell>
        <mxCell id="18pgJk4WOHWRwlphfpk1-58" value="OpA" style="text;html=1;strokeColor=none;fillColor=none;align=center;verticalAlign=middle;whiteSpace=wrap;rounded=0;" parent="1" vertex="1">
          <mxGeometry x="502.5" y="727" width="25" height="26" as="geometry" />
        </mxCell>
        <mxCell id="18pgJk4WOHWRwlphfpk1-59" value="OpB" style="text;html=1;strokeColor=none;fillColor=none;align=center;verticalAlign=middle;whiteSpace=wrap;rounded=0;" parent="1" vertex="1">
          <mxGeometry x="503.5" y="743" width="25" height="26" as="geometry" />
        </mxCell>
        <mxCell id="18pgJk4WOHWRwlphfpk1-60" value="OpA" style="text;html=1;strokeColor=none;fillColor=none;align=center;verticalAlign=middle;whiteSpace=wrap;rounded=0;" parent="1" vertex="1">
          <mxGeometry x="503.5" y="802" width="25" height="26" as="geometry" />
        </mxCell>
        <mxCell id="18pgJk4WOHWRwlphfpk1-61" value="OpB" style="text;html=1;strokeColor=none;fillColor=none;align=center;verticalAlign=middle;whiteSpace=wrap;rounded=0;" parent="1" vertex="1">
          <mxGeometry x="504.5" y="818" width="25" height="26" as="geometry" />
        </mxCell>
        <mxCell id="18pgJk4WOHWRwlphfpk1-62" value="RD" style="text;html=1;strokeColor=none;fillColor=none;align=center;verticalAlign=middle;whiteSpace=wrap;rounded=0;" parent="1" vertex="1">
          <mxGeometry x="574" y="672" width="25" height="26" as="geometry" />
        </mxCell>
        <mxCell id="18pgJk4WOHWRwlphfpk1-63" value="RD" style="text;html=1;strokeColor=none;fillColor=none;align=center;verticalAlign=middle;whiteSpace=wrap;rounded=0;" parent="1" vertex="1">
          <mxGeometry x="574" y="739" width="25" height="26" as="geometry" />
        </mxCell>
        <mxCell id="18pgJk4WOHWRwlphfpk1-64" value="RD" style="text;html=1;strokeColor=none;fillColor=none;align=center;verticalAlign=middle;whiteSpace=wrap;rounded=0;" parent="1" vertex="1">
          <mxGeometry x="574" y="821" width="25" height="26" as="geometry" />
        </mxCell>
        <mxCell id="18pgJk4WOHWRwlphfpk1-65" value="" style="group" parent="1" vertex="1" connectable="0">
          <mxGeometry x="502" y="879" width="108" height="50" as="geometry" />
        </mxCell>
        <mxCell id="18pgJk4WOHWRwlphfpk1-66" value="&lt;b&gt;&lt;font style=&quot;font-size: 14px;&quot; color=&quot;#f74f11&quot;&gt;&amp;nbsp;+ ISA ext.&lt;/font&gt;&lt;br&gt;&lt;/b&gt;" style="rounded=1;whiteSpace=wrap;html=1;flipV=1;rotation=0;arcSize=14;strokeColor=#82b366;fillColor=#d5e8d4;dashed=1;dashPattern=1 1;strokeWidth=2;" parent="18pgJk4WOHWRwlphfpk1-65" vertex="1">
          <mxGeometry x="-0.9473684210526315" y="-5" width="105.1578947368421" height="50" as="geometry" />
        </mxCell>
        <mxCell id="18pgJk4WOHWRwlphfpk1-67" value="" style="triangle;whiteSpace=wrap;html=1;rotation=-90;fillColor=#d5e8d4;strokeColor=#82b366;" parent="18pgJk4WOHWRwlphfpk1-65" vertex="1">
          <mxGeometry x="39.78947368421053" y="35" width="9.473684210526315" height="10" as="geometry" />
        </mxCell>
        <mxCell id="18pgJk4WOHWRwlphfpk1-68" value="OpA" style="text;html=1;strokeColor=none;fillColor=none;align=center;verticalAlign=middle;whiteSpace=wrap;rounded=0;fontStyle=1;fontColor=#00CC00;" parent="18pgJk4WOHWRwlphfpk1-65" vertex="1">
          <mxGeometry y="-4" width="23.684210526315788" height="26" as="geometry" />
        </mxCell>
        <mxCell id="18pgJk4WOHWRwlphfpk1-69" value="OpB" style="text;html=1;strokeColor=none;fillColor=none;align=center;verticalAlign=middle;whiteSpace=wrap;rounded=0;fontStyle=1;fontColor=#00CC00;" parent="18pgJk4WOHWRwlphfpk1-65" vertex="1">
          <mxGeometry x="0.9473684210526315" y="7" width="23.684210526315788" height="26" as="geometry" />
        </mxCell>
        <mxCell id="18pgJk4WOHWRwlphfpk1-70" value="&lt;b&gt;&lt;font style=&quot;font-size: 11px;&quot; color=&quot;#00cc00&quot;&gt;RD&lt;/font&gt;&lt;/b&gt;" style="text;html=1;strokeColor=none;fillColor=none;align=center;verticalAlign=middle;whiteSpace=wrap;rounded=0;" parent="18pgJk4WOHWRwlphfpk1-65" vertex="1">
          <mxGeometry x="84.3157894736842" y="4.5" width="23.684210526315788" height="26" as="geometry" />
        </mxCell>
        <mxCell id="18pgJk4WOHWRwlphfpk1-130" value="OpC" style="text;html=1;strokeColor=none;fillColor=none;align=center;verticalAlign=middle;whiteSpace=wrap;rounded=0;fontStyle=1;fontColor=#00CC00;" parent="18pgJk4WOHWRwlphfpk1-65" vertex="1">
          <mxGeometry x="0.9473684210526315" y="19" width="23.684210526315788" height="26" as="geometry" />
        </mxCell>
        <mxCell id="18pgJk4WOHWRwlphfpk1-131" value="" style="group" parent="18pgJk4WOHWRwlphfpk1-65" vertex="1" connectable="0">
          <mxGeometry width="108" height="50" as="geometry" />
        </mxCell>
        <mxCell id="18pgJk4WOHWRwlphfpk1-132" value="&lt;b&gt;&lt;font style=&quot;font-size: 12px;&quot; color=&quot;#f74f11&quot;&gt;&amp;nbsp;+ ISA ext.&lt;/font&gt;&lt;br&gt;&lt;/b&gt;" style="rounded=1;whiteSpace=wrap;html=1;flipV=1;rotation=0;arcSize=14;strokeColor=#82b366;fillColor=#d5e8d4;dashed=1;dashPattern=1 1;strokeWidth=2;" parent="18pgJk4WOHWRwlphfpk1-131" vertex="1">
          <mxGeometry x="-0.9473684210526315" y="-5" width="105.1578947368421" height="50" as="geometry" />
        </mxCell>
        <mxCell id="18pgJk4WOHWRwlphfpk1-133" value="" style="triangle;whiteSpace=wrap;html=1;rotation=-90;fillColor=#d5e8d4;strokeColor=#82b366;" parent="18pgJk4WOHWRwlphfpk1-131" vertex="1">
          <mxGeometry x="39.78947368421053" y="35" width="9.473684210526315" height="10" as="geometry" />
        </mxCell>
        <mxCell id="18pgJk4WOHWRwlphfpk1-134" value="OpA" style="text;html=1;strokeColor=none;fillColor=none;align=center;verticalAlign=middle;whiteSpace=wrap;rounded=0;fontStyle=1;fontColor=#00CC00;fontSize=11;" parent="18pgJk4WOHWRwlphfpk1-131" vertex="1">
          <mxGeometry y="-4" width="23.684210526315788" height="26" as="geometry" />
        </mxCell>
        <mxCell id="18pgJk4WOHWRwlphfpk1-135" value="OpB" style="text;html=1;strokeColor=none;fillColor=none;align=center;verticalAlign=middle;whiteSpace=wrap;rounded=0;fontStyle=1;fontColor=#00CC00;fontSize=11;" parent="18pgJk4WOHWRwlphfpk1-131" vertex="1">
          <mxGeometry x="0.9473684210526315" y="7" width="23.684210526315788" height="26" as="geometry" />
        </mxCell>
        <mxCell id="18pgJk4WOHWRwlphfpk1-136" value="&lt;b&gt;&lt;font style=&quot;font-size: 11px;&quot; color=&quot;#00cc00&quot;&gt;RD&lt;/font&gt;&lt;/b&gt;" style="text;html=1;strokeColor=none;fillColor=none;align=center;verticalAlign=middle;whiteSpace=wrap;rounded=0;" parent="18pgJk4WOHWRwlphfpk1-131" vertex="1">
          <mxGeometry x="80.52631578947368" y="7.5" width="23.684210526315788" height="26" as="geometry" />
        </mxCell>
        <mxCell id="18pgJk4WOHWRwlphfpk1-71" value="" style="endArrow=classicThin;html=1;rounded=0;entryX=0;entryY=0.5;entryDx=0;entryDy=0;endFill=1;exitX=1.007;exitY=0.535;exitDx=0;exitDy=0;exitPerimeter=0;" parent="1" source="18pgJk4WOHWRwlphfpk1-35" edge="1">
          <mxGeometry width="50" height="50" relative="1" as="geometry">
            <mxPoint x="463" y="758" as="sourcePoint" />
            <mxPoint x="499" y="758" as="targetPoint" />
          </mxGeometry>
        </mxCell>
        <mxCell id="18pgJk4WOHWRwlphfpk1-72" value="" style="endArrow=classicThin;html=1;rounded=0;entryX=0;entryY=0.5;entryDx=0;entryDy=0;endFill=1;exitX=0.967;exitY=0.469;exitDx=0;exitDy=0;exitPerimeter=0;" parent="1" source="18pgJk4WOHWRwlphfpk1-35" edge="1">
          <mxGeometry width="50" height="50" relative="1" as="geometry">
            <mxPoint x="465" y="739" as="sourcePoint" />
            <mxPoint x="498" y="739" as="targetPoint" />
          </mxGeometry>
        </mxCell>
        <mxCell id="18pgJk4WOHWRwlphfpk1-73" value="" style="endArrow=classic;html=1;rounded=0;startArrow=oval;startFill=1;" parent="1" edge="1">
          <mxGeometry width="50" height="50" relative="1" as="geometry">
            <mxPoint x="473" y="739" as="sourcePoint" />
            <mxPoint x="523" y="579" as="targetPoint" />
            <Array as="points">
              <mxPoint x="473" y="579" />
            </Array>
          </mxGeometry>
        </mxCell>
        <mxCell id="18pgJk4WOHWRwlphfpk1-74" value="" style="endArrow=classic;html=1;rounded=0;entryX=0;entryY=0.75;entryDx=0;entryDy=0;startArrow=oval;startFill=1;" parent="1" edge="1">
          <mxGeometry width="50" height="50" relative="1" as="geometry">
            <mxPoint x="473" y="675" as="sourcePoint" />
            <mxPoint x="503" y="675.3199999999999" as="targetPoint" />
          </mxGeometry>
        </mxCell>
        <mxCell id="18pgJk4WOHWRwlphfpk1-75" value="" style="endArrow=classic;html=1;rounded=0;entryX=-0.022;entryY=0.786;entryDx=0;entryDy=0;startArrow=oval;startFill=1;entryPerimeter=0;" parent="1" target="18pgJk4WOHWRwlphfpk1-8" edge="1">
          <mxGeometry width="50" height="50" relative="1" as="geometry">
            <mxPoint x="473" y="815" as="sourcePoint" />
            <mxPoint x="503" y="815.3199999999999" as="targetPoint" />
          </mxGeometry>
        </mxCell>
        <mxCell id="18pgJk4WOHWRwlphfpk1-76" value="" style="endArrow=classic;html=1;rounded=0;entryX=0;entryY=0.75;entryDx=0;entryDy=0;startArrow=oval;startFill=1;" parent="1" edge="1">
          <mxGeometry width="50" height="50" relative="1" as="geometry">
            <mxPoint x="482" y="831" as="sourcePoint" />
            <mxPoint x="500" y="831.3199999999999" as="targetPoint" />
          </mxGeometry>
        </mxCell>
        <mxCell id="18pgJk4WOHWRwlphfpk1-79" value="" style="endArrow=none;html=1;rounded=0;" parent="1" edge="1">
          <mxGeometry width="50" height="50" relative="1" as="geometry">
            <mxPoint x="473" y="960" as="sourcePoint" />
            <mxPoint x="473" y="739" as="targetPoint" />
          </mxGeometry>
        </mxCell>
        <mxCell id="18pgJk4WOHWRwlphfpk1-80" value="" style="endArrow=oval;html=1;rounded=0;startArrow=none;startFill=0;endFill=1;" parent="1" edge="1">
          <mxGeometry width="50" height="50" relative="1" as="geometry">
            <mxPoint x="480" y="980" as="sourcePoint" />
            <mxPoint x="481" y="759" as="targetPoint" />
          </mxGeometry>
        </mxCell>
        <mxCell id="18pgJk4WOHWRwlphfpk1-81" value="" style="endArrow=classic;html=1;rounded=0;entryX=0.013;entryY=1.137;entryDx=0;entryDy=0;entryPerimeter=0;startArrow=oval;startFill=1;" parent="1" target="18pgJk4WOHWRwlphfpk1-56" edge="1">
          <mxGeometry width="50" height="50" relative="1" as="geometry">
            <mxPoint x="483" y="690" as="sourcePoint" />
            <mxPoint x="593" y="699" as="targetPoint" />
          </mxGeometry>
        </mxCell>
        <mxCell id="18pgJk4WOHWRwlphfpk1-82" value="" style="endArrow=classic;html=1;rounded=0;entryX=0;entryY=0.5;entryDx=0;entryDy=0;" parent="1" edge="1">
          <mxGeometry width="50" height="50" relative="1" as="geometry">
            <mxPoint x="481" y="759" as="sourcePoint" />
            <mxPoint x="521" y="594" as="targetPoint" />
            <Array as="points">
              <mxPoint x="481" y="594" />
            </Array>
          </mxGeometry>
        </mxCell>
        <mxCell id="18pgJk4WOHWRwlphfpk1-83" value="" style="endArrow=classic;html=1;rounded=0;entryX=0;entryY=0.75;entryDx=0;entryDy=0;" parent="1" target="18pgJk4WOHWRwlphfpk1-49" edge="1">
          <mxGeometry width="50" height="50" relative="1" as="geometry">
            <mxPoint x="460" y="720" as="sourcePoint" />
            <mxPoint x="593" y="699" as="targetPoint" />
            <Array as="points">
              <mxPoint x="460" y="610" />
            </Array>
          </mxGeometry>
        </mxCell>
        <mxCell id="18pgJk4WOHWRwlphfpk1-84" value="" style="endArrow=classic;html=1;rounded=0;exitX=1;exitY=0;exitDx=0;exitDy=0;entryX=0.143;entryY=0.967;entryDx=0;entryDy=0;entryPerimeter=0;" parent="1" source="18pgJk4WOHWRwlphfpk1-62" target="18pgJk4WOHWRwlphfpk1-32" edge="1">
          <mxGeometry width="50" height="50" relative="1" as="geometry">
            <mxPoint x="543" y="749" as="sourcePoint" />
            <mxPoint x="593" y="699" as="targetPoint" />
            <Array as="points">
              <mxPoint x="603" y="679" />
              <mxPoint x="603" y="719" />
            </Array>
          </mxGeometry>
        </mxCell>
        <mxCell id="18pgJk4WOHWRwlphfpk1-85" value="" style="endArrow=classic;html=1;rounded=0;exitX=1;exitY=0.5;exitDx=0;exitDy=0;" parent="1" edge="1">
          <mxGeometry width="50" height="50" relative="1" as="geometry">
            <mxPoint x="599" y="750" as="sourcePoint" />
            <mxPoint x="630" y="750" as="targetPoint" />
            <Array as="points">
              <mxPoint x="610" y="750" />
            </Array>
          </mxGeometry>
        </mxCell>
        <mxCell id="18pgJk4WOHWRwlphfpk1-86" value="" style="endArrow=classic;html=1;rounded=0;entryX=0.5;entryY=1;entryDx=0;entryDy=0;exitX=1;exitY=0.5;exitDx=0;exitDy=0;" parent="1" source="18pgJk4WOHWRwlphfpk1-64" target="18pgJk4WOHWRwlphfpk1-32" edge="1">
          <mxGeometry width="50" height="50" relative="1" as="geometry">
            <mxPoint x="603" y="829" as="sourcePoint" />
            <mxPoint x="593" y="699" as="targetPoint" />
            <Array as="points">
              <mxPoint x="603" y="819" />
              <mxPoint x="610" y="770" />
            </Array>
          </mxGeometry>
        </mxCell>
        <mxCell id="18pgJk4WOHWRwlphfpk1-87" value="" style="endArrow=classic;html=1;rounded=0;exitX=1;exitY=0.5;exitDx=0;exitDy=0;entryX=0.709;entryY=1.033;entryDx=0;entryDy=0;entryPerimeter=0;fillColor=#d5e8d4;strokeColor=#82b366;" parent="1" source="18pgJk4WOHWRwlphfpk1-66" target="18pgJk4WOHWRwlphfpk1-32" edge="1">
          <mxGeometry width="50" height="50" relative="1" as="geometry">
            <mxPoint x="543" y="749" as="sourcePoint" />
            <mxPoint x="593" y="699" as="targetPoint" />
            <Array as="points">
              <mxPoint x="610" y="870" />
              <mxPoint x="610" y="800" />
            </Array>
          </mxGeometry>
        </mxCell>
        <mxCell id="18pgJk4WOHWRwlphfpk1-88" value="" style="endArrow=none;html=1;rounded=0;exitX=0.5;exitY=0;exitDx=0;exitDy=0;" parent="1" source="18pgJk4WOHWRwlphfpk1-32" edge="1">
          <mxGeometry width="50" height="50" relative="1" as="geometry">
            <mxPoint x="543" y="749" as="sourcePoint" />
            <mxPoint x="650" y="770" as="targetPoint" />
          </mxGeometry>
        </mxCell>
        <mxCell id="18pgJk4WOHWRwlphfpk1-90" value="" style="endArrow=none;html=1;rounded=0;exitX=0.61;exitY=0.918;exitDx=0;exitDy=0;exitPerimeter=0;" parent="1" source="18pgJk4WOHWRwlphfpk1-33" edge="1">
          <mxGeometry width="50" height="50" relative="1" as="geometry">
            <mxPoint x="624" y="680" as="sourcePoint" />
            <mxPoint x="674" y="630" as="targetPoint" />
            <Array as="points">
              <mxPoint x="720" y="936" />
              <mxPoint x="720" y="659" />
              <mxPoint x="683" y="659" />
              <mxPoint x="674" y="639" />
            </Array>
          </mxGeometry>
        </mxCell>
        <mxCell id="18pgJk4WOHWRwlphfpk1-91" value="&lt;b&gt;Fetcher&lt;br&gt;&lt;/b&gt;" style="rounded=1;whiteSpace=wrap;html=1;flipV=1;rotation=0;" parent="1" vertex="1">
          <mxGeometry x="82" y="580" width="70" height="410" as="geometry" />
        </mxCell>
        <mxCell id="18pgJk4WOHWRwlphfpk1-92" value="" style="endArrow=none;html=1;rounded=0;startArrow=none;startFill=0;endFill=0;" parent="1" edge="1">
          <mxGeometry width="50" height="50" relative="1" as="geometry">
            <mxPoint x="650" y="930" as="sourcePoint" />
            <mxPoint x="650" y="770" as="targetPoint" />
          </mxGeometry>
        </mxCell>
        <mxCell id="18pgJk4WOHWRwlphfpk1-93" value="" style="endArrow=none;html=1;rounded=0;" parent="1" edge="1">
          <mxGeometry width="50" height="50" relative="1" as="geometry">
            <mxPoint x="240" y="930" as="sourcePoint" />
            <mxPoint x="650" y="930" as="targetPoint" />
          </mxGeometry>
        </mxCell>
        <mxCell id="18pgJk4WOHWRwlphfpk1-94" value="" style="endArrow=none;dashed=1;html=1;dashPattern=1 3;strokeWidth=2;rounded=0;startArrow=oval;startFill=1;" parent="1" edge="1">
          <mxGeometry width="50" height="50" relative="1" as="geometry">
            <mxPoint x="359" y="930" as="sourcePoint" />
            <mxPoint x="359" y="680" as="targetPoint" />
          </mxGeometry>
        </mxCell>
        <mxCell id="18pgJk4WOHWRwlphfpk1-95" value="" style="endArrow=classicThin;dashed=1;html=1;dashPattern=1 3;strokeWidth=2;rounded=0;entryX=0.5;entryY=1;entryDx=0;entryDy=0;endFill=1;" parent="1" edge="1">
          <mxGeometry width="50" height="50" relative="1" as="geometry">
            <mxPoint x="359" y="681" as="sourcePoint" />
            <mxPoint x="398.0050000000001" y="680.815" as="targetPoint" />
          </mxGeometry>
        </mxCell>
        <mxCell id="18pgJk4WOHWRwlphfpk1-96" value="" style="endArrow=classicThin;dashed=1;html=1;dashPattern=1 3;strokeWidth=2;rounded=0;entryX=0.465;entryY=0.986;entryDx=0;entryDy=0;entryPerimeter=0;startArrow=oval;startFill=1;endFill=1;" parent="1" target="18pgJk4WOHWRwlphfpk1-12" edge="1">
          <mxGeometry width="50" height="50" relative="1" as="geometry">
            <mxPoint x="360" y="834" as="sourcePoint" />
            <mxPoint x="509" y="749" as="targetPoint" />
          </mxGeometry>
        </mxCell>
        <mxCell id="18pgJk4WOHWRwlphfpk1-97" value="" style="endArrow=none;dashed=1;html=1;rounded=0;startArrow=oval;startFill=1;" parent="1" edge="1">
          <mxGeometry width="50" height="50" relative="1" as="geometry">
            <mxPoint x="367" y="939" as="sourcePoint" />
            <mxPoint x="367" y="709" as="targetPoint" />
          </mxGeometry>
        </mxCell>
        <mxCell id="18pgJk4WOHWRwlphfpk1-98" value="" style="endArrow=classicThin;dashed=1;html=1;rounded=0;entryX=0.689;entryY=1.02;entryDx=0;entryDy=0;entryPerimeter=0;endFill=1;" parent="1" target="18pgJk4WOHWRwlphfpk1-5" edge="1">
          <mxGeometry width="50" height="50" relative="1" as="geometry">
            <mxPoint x="369" y="709" as="sourcePoint" />
            <mxPoint x="509" y="749" as="targetPoint" />
          </mxGeometry>
        </mxCell>
        <mxCell id="18pgJk4WOHWRwlphfpk1-99" value="" style="endArrow=classicThin;dashed=1;html=1;rounded=0;startArrow=oval;startFill=1;entryX=0.607;entryY=0.95;entryDx=0;entryDy=0;entryPerimeter=0;endFill=1;" parent="1" target="18pgJk4WOHWRwlphfpk1-12" edge="1">
          <mxGeometry width="50" height="50" relative="1" as="geometry">
            <mxPoint x="368" y="856" as="sourcePoint" />
            <mxPoint x="395" y="850" as="targetPoint" />
          </mxGeometry>
        </mxCell>
        <mxCell id="18pgJk4WOHWRwlphfpk1-107" value="DIB" style="text;html=1;strokeColor=none;fillColor=none;align=center;verticalAlign=middle;whiteSpace=wrap;rounded=0;" parent="1" vertex="1">
          <mxGeometry x="255.80219780219784" y="872.3076923076923" width="23.35164835164835" height="34" as="geometry" />
        </mxCell>
        <mxCell id="18pgJk4WOHWRwlphfpk1-109" value="rC" style="text;html=1;strokeColor=none;fillColor=none;align=center;verticalAlign=middle;whiteSpace=wrap;rounded=0;" parent="1" vertex="1">
          <mxGeometry x="254" y="795.2307692307693" width="23.35164835164835" height="34" as="geometry" />
        </mxCell>
        <mxCell id="18pgJk4WOHWRwlphfpk1-110" value="" style="endArrow=none;html=1;rounded=0;exitX=0;exitY=0.5;exitDx=0;exitDy=0;endFill=0;startArrow=classicThin;startFill=1;" parent="1" source="18pgJk4WOHWRwlphfpk1-109" edge="1">
          <mxGeometry width="50" height="50" relative="1" as="geometry">
            <mxPoint x="263" y="802" as="sourcePoint" />
            <mxPoint x="230" y="760" as="targetPoint" />
          </mxGeometry>
        </mxCell>
        <mxCell id="18pgJk4WOHWRwlphfpk1-111" value="OpC" style="text;html=1;strokeColor=none;fillColor=none;align=center;verticalAlign=middle;whiteSpace=wrap;rounded=0;" parent="1" vertex="1">
          <mxGeometry x="502.5" y="759" width="25" height="26" as="geometry" />
        </mxCell>
        <mxCell id="18pgJk4WOHWRwlphfpk1-112" value="OpC" style="text;html=1;strokeColor=none;fillColor=none;align=center;verticalAlign=middle;whiteSpace=wrap;rounded=0;" parent="1" vertex="1">
          <mxGeometry x="504.5" y="835" width="25" height="26" as="geometry" />
        </mxCell>
        <mxCell id="18pgJk4WOHWRwlphfpk1-113" value="OpC" style="text;html=1;strokeColor=none;fillColor=none;align=center;verticalAlign=middle;whiteSpace=wrap;rounded=0;fontStyle=1;fontColor=#00CC00;fontSize=11;" parent="1" vertex="1">
          <mxGeometry x="503" y="898" width="25" height="26" as="geometry" />
        </mxCell>
        <mxCell id="18pgJk4WOHWRwlphfpk1-115" value="" style="endArrow=none;html=1;rounded=0;exitX=0.5;exitY=0;exitDx=0;exitDy=0;" parent="1" edge="1">
          <mxGeometry width="50" height="50" relative="1" as="geometry">
            <mxPoint x="449" y="720" as="sourcePoint" />
            <mxPoint x="460" y="720" as="targetPoint" />
          </mxGeometry>
        </mxCell>
        <mxCell id="18pgJk4WOHWRwlphfpk1-34" value="" style="group" parent="1" vertex="1" connectable="0">
          <mxGeometry x="433" y="593" width="20" height="310" as="geometry" />
        </mxCell>
        <mxCell id="18pgJk4WOHWRwlphfpk1-35" value="ID&lt;br&gt;EX" style="rounded=0;whiteSpace=wrap;html=1;" parent="18pgJk4WOHWRwlphfpk1-34" vertex="1">
          <mxGeometry x="-4.53" width="24.53" height="310" as="geometry" />
        </mxCell>
        <mxCell id="18pgJk4WOHWRwlphfpk1-36" value="" style="triangle;whiteSpace=wrap;html=1;rotation=-90;" parent="18pgJk4WOHWRwlphfpk1-34" vertex="1">
          <mxGeometry x="6.133333333333333" y="302" width="5.666666666666666" height="10" as="geometry" />
        </mxCell>
        <mxCell id="18pgJk4WOHWRwlphfpk1-116" value="" style="endArrow=oval;html=1;rounded=0;startArrow=none;startFill=0;endFill=1;" parent="1" edge="1">
          <mxGeometry width="50" height="50" relative="1" as="geometry">
            <mxPoint x="460" y="990" as="sourcePoint" />
            <mxPoint x="460" y="721" as="targetPoint" />
          </mxGeometry>
        </mxCell>
        <mxCell id="18pgJk4WOHWRwlphfpk1-117" value="" style="endArrow=classic;html=1;rounded=0;entryX=0;entryY=0.75;entryDx=0;entryDy=0;startArrow=oval;startFill=1;fillColor=#d5e8d4;strokeColor=#82b366;" parent="1" edge="1">
          <mxGeometry width="50" height="50" relative="1" as="geometry">
            <mxPoint x="460" y="912" as="sourcePoint" />
            <mxPoint x="501" y="912.3199999999999" as="targetPoint" />
          </mxGeometry>
        </mxCell>
        <mxCell id="18pgJk4WOHWRwlphfpk1-118" value="" style="endArrow=classic;html=1;rounded=0;entryX=0;entryY=0.75;entryDx=0;entryDy=0;startArrow=oval;startFill=1;" parent="1" edge="1">
          <mxGeometry width="50" height="50" relative="1" as="geometry">
            <mxPoint x="460" y="848" as="sourcePoint" />
            <mxPoint x="499" y="848.3199999999999" as="targetPoint" />
          </mxGeometry>
        </mxCell>
        <mxCell id="18pgJk4WOHWRwlphfpk1-119" value="" style="endArrow=classic;html=1;rounded=0;entryX=0;entryY=0.75;entryDx=0;entryDy=0;startArrow=oval;startFill=1;" parent="1" edge="1">
          <mxGeometry width="50" height="50" relative="1" as="geometry">
            <mxPoint x="460" y="773" as="sourcePoint" />
            <mxPoint x="499" y="773.3199999999999" as="targetPoint" />
          </mxGeometry>
        </mxCell>
        <mxCell id="18pgJk4WOHWRwlphfpk1-120" value="&lt;b&gt;FPU&lt;br&gt;&lt;/b&gt;" style="rounded=1;whiteSpace=wrap;html=1;flipV=1;rotation=0;arcSize=14;" parent="1" vertex="1">
          <mxGeometry x="499" y="947" width="100" height="53" as="geometry" />
        </mxCell>
        <mxCell id="18pgJk4WOHWRwlphfpk1-121" value="OpA" style="text;html=1;strokeColor=none;fillColor=none;align=center;verticalAlign=middle;whiteSpace=wrap;rounded=0;" parent="1" vertex="1">
          <mxGeometry x="503.5" y="943" width="25" height="26" as="geometry" />
        </mxCell>
        <mxCell id="18pgJk4WOHWRwlphfpk1-122" value="OpB" style="text;html=1;strokeColor=none;fillColor=none;align=center;verticalAlign=middle;whiteSpace=wrap;rounded=0;" parent="1" vertex="1">
          <mxGeometry x="504.5" y="959" width="25" height="26" as="geometry" />
        </mxCell>
        <mxCell id="18pgJk4WOHWRwlphfpk1-124" value="OpC" style="text;html=1;strokeColor=none;fillColor=none;align=center;verticalAlign=middle;whiteSpace=wrap;rounded=0;" parent="1" vertex="1">
          <mxGeometry x="504.5" y="976" width="25" height="26" as="geometry" />
        </mxCell>
        <mxCell id="18pgJk4WOHWRwlphfpk1-125" value="" style="endArrow=classic;html=1;rounded=0;entryX=0;entryY=0.75;entryDx=0;entryDy=0;startArrow=oval;startFill=1;" parent="1" edge="1">
          <mxGeometry width="50" height="50" relative="1" as="geometry">
            <mxPoint x="461" y="990" as="sourcePoint" />
            <mxPoint x="500" y="990.3199999999999" as="targetPoint" />
          </mxGeometry>
        </mxCell>
        <mxCell id="18pgJk4WOHWRwlphfpk1-126" value="" style="endArrow=classic;html=1;rounded=0;startArrow=oval;startFill=1;entryX=0;entryY=0.25;entryDx=0;entryDy=0;" parent="1" target="18pgJk4WOHWRwlphfpk1-120" edge="1">
          <mxGeometry width="50" height="50" relative="1" as="geometry">
            <mxPoint x="471" y="960" as="sourcePoint" />
            <mxPoint x="491" y="960" as="targetPoint" />
          </mxGeometry>
        </mxCell>
        <mxCell id="18pgJk4WOHWRwlphfpk1-127" value="" style="endArrow=classic;html=1;rounded=0;entryX=0;entryY=0.75;entryDx=0;entryDy=0;startArrow=oval;startFill=1;" parent="1" edge="1">
          <mxGeometry width="50" height="50" relative="1" as="geometry">
            <mxPoint x="481" y="977" as="sourcePoint" />
            <mxPoint x="499" y="977.3199999999999" as="targetPoint" />
          </mxGeometry>
        </mxCell>
        <mxCell id="18pgJk4WOHWRwlphfpk1-77" value="" style="endArrow=classic;html=1;rounded=0;entryX=0;entryY=0.75;entryDx=0;entryDy=0;startArrow=oval;startFill=1;fillColor=#d5e8d4;strokeColor=#82b366;" parent="1" edge="1">
          <mxGeometry width="50" height="50" relative="1" as="geometry">
            <mxPoint x="473" y="889" as="sourcePoint" />
            <mxPoint x="503" y="889.3199999999999" as="targetPoint" />
          </mxGeometry>
        </mxCell>
        <mxCell id="18pgJk4WOHWRwlphfpk1-78" value="" style="endArrow=classic;html=1;rounded=0;entryX=0;entryY=0.75;entryDx=0;entryDy=0;startArrow=oval;startFill=1;fillColor=#d5e8d4;strokeColor=#82b366;" parent="1" edge="1">
          <mxGeometry width="50" height="50" relative="1" as="geometry">
            <mxPoint x="481" y="903" as="sourcePoint" />
            <mxPoint x="501" y="903.3199999999999" as="targetPoint" />
          </mxGeometry>
        </mxCell>
        <mxCell id="18pgJk4WOHWRwlphfpk1-146" value="" style="endArrow=classic;html=1;rounded=0;exitX=1;exitY=0.5;exitDx=0;exitDy=0;" parent="1" edge="1">
          <mxGeometry width="50" height="50" relative="1" as="geometry">
            <mxPoint x="599" y="973" as="sourcePoint" />
            <mxPoint x="630" y="820" as="targetPoint" />
            <Array as="points">
              <mxPoint x="620" y="973" />
              <mxPoint x="620" y="860" />
              <mxPoint x="620" y="820" />
            </Array>
          </mxGeometry>
        </mxCell>
        <mxCell id="18pgJk4WOHWRwlphfpk1-147" value="RD" style="text;html=1;strokeColor=none;fillColor=none;align=center;verticalAlign=middle;whiteSpace=wrap;rounded=0;" parent="1" vertex="1">
          <mxGeometry x="574" y="959" width="25" height="26" as="geometry" />
        </mxCell>
        <mxCell id="18pgJk4WOHWRwlphfpk1-150" value="" style="endArrow=none;html=1;rounded=0;entryX=0.319;entryY=1.173;entryDx=0;entryDy=0;entryPerimeter=0;" parent="1" edge="1">
          <mxGeometry width="50" height="50" relative="1" as="geometry">
            <mxPoint x="720" y="953" as="sourcePoint" />
            <mxPoint x="712.403" y="953.1879999999999" as="targetPoint" />
          </mxGeometry>
        </mxCell>
        <mxCell id="18pgJk4WOHWRwlphfpk1-151" value="" style="endArrow=none;html=1;rounded=0;startArrow=oval;startFill=1;" parent="1" edge="1">
          <mxGeometry width="50" height="50" relative="1" as="geometry">
            <mxPoint x="620" y="973" as="sourcePoint" />
            <mxPoint x="720" y="953" as="targetPoint" />
            <Array as="points">
              <mxPoint x="620" y="983" />
              <mxPoint x="720" y="983" />
            </Array>
          </mxGeometry>
        </mxCell>
        <mxCell id="18pgJk4WOHWRwlphfpk1-33" value="" style="shape=trapezoid;perimeter=trapezoidPerimeter;whiteSpace=wrap;html=1;fixedSize=1;rotation=-90;fillColor=#FFFFFF;size=17;" parent="1" vertex="1">
          <mxGeometry x="683" y="934" width="48" height="14" as="geometry" />
        </mxCell>
        <mxCell id="18pgJk4WOHWRwlphfpk1-152" value="" style="endArrow=classicThin;html=1;rounded=0;entryX=0;entryY=0.5;entryDx=0;entryDy=0;endFill=1;" parent="1" target="18pgJk4WOHWRwlphfpk1-107" edge="1">
          <mxGeometry width="50" height="50" relative="1" as="geometry">
            <mxPoint x="241" y="930" as="sourcePoint" />
            <mxPoint x="290.68" y="874" as="targetPoint" />
            <Array as="points">
              <mxPoint x="240" y="900" />
            </Array>
          </mxGeometry>
        </mxCell>
      </root>
    </mxGraphModel>
  </diagram>
</mxfile>
